<?xml version="1.0" standalone="no"?>
<!DOCTYPE svg PUBLIC "-//W3C//DTD SVG 20010904//EN"
 "http://www.w3.org/TR/2001/REC-SVG-20010904/DTD/svg10.dtd">
<svg version="1.0" xmlns="http://www.w3.org/2000/svg" fill-opacity="0.1" 
 width="5183.000000pt" height="1804.000000pt" viewBox="0 0 5183.000000 1804.000000"
 preserveAspectRatio="xMidYMid meet">
<metadata>
Created by potrace 1.16, written by Peter Selinger 2001-2019
</metadata>
<g transform="translate(0.000000,1804.000000) scale(0.100000,-0.100000)"
fill="#000000" stroke="none">
<path d="M46490 17850 c0 -178 8 -219 45 -234 9 -3 106 -6 216 -6 l200 0 -3
73 -3 72 -152 3 -153 3 0 129 0 130 -75 0 -75 0 0 -170z"/>
<path d="M46710 17945 l0 -75 120 0 120 0 0 75 0 75 -120 0 -120 0 0 -75z"/>
<path d="M47060 17815 l0 -205 294 0 c254 0 297 2 310 16 19 19 19 25 2 192
-15 142 -28 176 -72 192 -14 6 -140 10 -280 10 l-254 0 0 -205z m260 133 c0
-80 -4 -78 141 -78 l129 0 0 -55 0 -55 -190 0 -190 0 0 120 0 120 55 -2 55 -3
0 -47z"/>
<path d="M47770 17815 l0 -205 295 0 295 0 0 91 0 92 -32 -8 c-18 -4 -51 -11
-73 -16 -22 -4 -106 -8 -187 -9 l-148 0 0 130 0 130 -75 0 -75 0 0 -205z"/>
<path d="M47990 17944 l0 -77 143 7 c191 10 187 9 187 60 0 90 8 86 -171 86
l-159 0 0 -76z"/>
<path d="M48430 17815 l0 -205 404 0 404 0 -5 63 c-3 35 -12 70 -21 80 -12 14
-17 48 -20 143 l-4 124 -74 0 -74 0 0 -133 0 -134 -67 13 c-90 17 -194 17
-268 -1 -79 -19 -111 -19 -119 1 -3 9 -6 69 -6 135 l0 119 -75 0 -75 0 0 -205z"/>
<path d="M48690 17945 l0 -75 124 0 123 0 47 70 c25 38 46 72 46 75 0 3 -76 5
-170 5 l-170 0 0 -75z"/>
<path d="M49310 17815 l0 -205 251 0 251 0 -7 57 c-8 65 -22 100 -42 108 -8 3
-98 0 -199 -7 -101 -7 -186 -9 -189 -6 -4 3 1 20 10 38 9 17 19 59 23 93 l7
62 40 -3 c51 -5 104 -27 111 -47 4 -8 -1 -26 -10 -40 -9 -13 -16 -27 -16 -30
0 -3 26 -5 58 -5 102 0 158 45 169 138 l6 52 -232 0 -231 0 0 -205z"/>
<path d="M49880 17815 l0 -205 295 0 c162 0 295 3 295 8 0 4 -9 90 -20 192
-11 102 -20 191 -20 198 0 14 -55 11 -205 -8 -33 -4 -93 -4 -135 0 -41 5 -105
11 -142 14 l-68 7 0 -206z m400 -5 c0 -63 -4 -100 -10 -100 -6 0 -28 9 -50 20
-27 14 -59 20 -102 20 -86 0 -95 8 -77 56 13 34 19 38 49 40 19 1 64 16 100
33 36 17 71 31 78 31 9 0 12 -27 12 -100z"/>
<path d="M50540 17815 l0 -205 625 0 625 0 0 205 0 205 -185 0 -185 0 -2 -197
-3 -198 -75 0 -75 0 -3 198 -2 197 -360 0 -360 0 0 -205z m220 109 c62 -38
136 -64 182 -64 21 0 43 13 79 47 59 55 71 53 109 -22 19 -39 25 -69 28 -142
3 -51 2 -98 -1 -105 -3 -9 -21 -12 -56 -10 l-51 4 0 46 c0 82 -2 82 -223 50
-72 -11 -79 -10 -97 8 -26 26 -56 224 -34 224 3 0 32 -16 64 -36z m977 -44 c7
-41 17 -88 23 -104 23 -66 22 -66 -110 -66 l-120 0 0 125 0 126 98 -3 97 -3
12 -75z"/>
<path d="M46535 17509 c-3 -9 -5 -49 -3 -90 l3 -74 2628 -3 2627 -2 0 75 0 75
-2611 0 c-2476 0 -2612 1 -2625 18 -11 15 -13 15 -19 1z"/>
<path d="M49197 17273 c-89 -3 -98 -6 -92 -21 30 -77 55 -169 60 -218 3 -32 8
-71 10 -86 3 -16 0 -28 -6 -28 -6 0 -44 31 -84 68 -127 119 -256 170 -381 150
-69 -11 -115 -34 -178 -89 -215 -190 -185 -431 86 -700 79 -78 161 -138 235
-171 36 -16 69 -22 133 -22 109 -1 133 6 158 47 12 20 37 42 65 55 38 18 48
28 56 59 33 128 42 166 39 177 -3 12 -246 -113 -313 -160 -54 -38 -81 -36
-163 10 -196 109 -268 219 -286 438 l-5 67 75 46 c141 85 260 123 330 103 87
-23 131 -114 141 -286 3 -56 9 -105 13 -107 19 -12 90 24 133 67 93 93 74 90
831 97 l639 6 17 85 c10 47 34 130 53 185 28 78 57 193 57 222 0 6 -153 3
-371 -9 -196 -10 -257 -10 -460 5 -215 16 -502 19 -792 10z m1028 -244 c112
-12 224 -42 289 -77 l49 -27 -449 -3 c-474 -3 -698 7 -760 33 -42 17 -38 26
21 43 166 45 581 61 850 31z"/>
<path d="M51130 17119 c-45 -19 -76 -57 -94 -115 -6 -20 -1 -23 61 -33 159
-28 236 -73 276 -160 16 -37 21 -68 21 -151 1 -97 -1 -109 -29 -165 -36 -72
-104 -130 -228 -195 l-83 -44 -129 107 c-83 70 -132 104 -138 98 -5 -5 -12
-32 -15 -59 -6 -64 26 -139 82 -190 129 -119 307 -89 473 78 140 141 198 271
198 440 0 122 -27 199 -97 276 -81 88 -226 144 -298 113z"/>
<path d="M30 16832 l0 -179 98 -7 c53 -3 149 -9 213 -13 l117 -6 17 27 c18 28
18 77 -3 286 l-7 65 -217 3 -218 2 0 -178z m341 98 c63 -32 64 -34 72 -91 5
-34 2 -38 -33 -58 -34 -19 -53 -21 -179 -21 l-141 0 0 95 c0 52 2 95 4 95 2 0
23 -7 47 -16 24 -8 63 -19 87 -23 42 -8 42 -8 42 20 0 38 23 38 101 -1z"/>
<path d="M570 16811 l0 -201 1010 0 1010 0 0 200 0 200 -255 0 c-140 0 -255
-2 -255 -4 0 -2 7 -20 15 -39 10 -25 15 -71 15 -145 l0 -109 -47 8 c-74 14
-82 18 -98 49 -20 39 -18 94 5 160 11 30 19 61 20 68 0 9 -53 12 -231 12
l-231 0 6 -42 c3 -24 8 -82 12 -129 l7 -86 -36 -6 c-35 -5 -115 -2 -184 9 -36
5 -38 11 -22 67 16 58 40 77 99 77 l50 0 0 55 0 55 -131 0 -131 0 7 -62 c4
-35 11 -80 17 -102 5 -21 7 -49 4 -62 -6 -22 -110 -114 -128 -114 -5 0 -8 77
-8 170 l0 170 -70 0 -69 0 -3 -147 -3 -148 -115 0 -115 0 4 65 c2 36 5 68 7
71 2 3 27 0 56 -7 96 -25 98 -24 98 56 0 68 -1 70 -32 87 -25 13 -64 18 -155
21 l-123 4 0 -201z m1165 152 c37 -18 55 -33 55 -45 0 -11 27 -59 61 -109 33
-50 59 -92 57 -94 -2 -1 -43 1 -91 5 -100 9 -121 22 -137 79 -10 36 -14 191
-5 191 2 0 29 -12 60 -27z m775 -36 l55 -22 3 -74 3 -73 -26 6 c-19 5 -49 -4
-104 -29 -135 -60 -202 -40 -252 74 l-20 44 28 29 c75 79 186 95 313 45z"/>
<path d="M2700 16810 l0 -200 235 0 235 0 0 90 c0 101 6 96 -90 75 -36 -8
-116 -14 -177 -15 l-112 0 33 58 c19 31 45 65 58 75 22 17 27 16 103 -2 44
-11 104 -21 133 -24 l52 -4 0 73 0 74 -235 0 -235 0 0 -200z"/>
<path d="M3350 17003 c-14 -3 -29 -9 -34 -13 -8 -8 -34 -265 -36 -347 l0 -33
296 0 c278 0 296 1 289 18 -5 9 -13 43 -18 75 l-11 57 -208 0 -208 0 0 95 c0
52 3 95 6 95 3 0 33 -19 66 -42 l61 -43 124 -4 124 -3 -3 73 -3 74 -210 1
c-115 1 -221 -1 -235 -3z"/>
<path d="M3903 16994 c-7 -19 13 -232 31 -319 l12 -60 257 -3 257 -2 -1 32 c0
18 -8 107 -17 198 l-17 165 -258 3 c-232 2 -258 1 -264 -14z m186 -72 c26 -38
93 -83 133 -91 30 -7 34 -5 44 23 8 24 20 33 52 43 l42 12 0 -74 c0 -86 17
-75 -153 -100 -117 -18 -168 -11 -187 25 -13 24 -13 131 0 164 13 34 43 33 69
-2z"/>
<path d="M4530 16810 l0 -200 238 2 237 3 0 195 0 195 -237 3 -238 2 0 -200z
m372 70 l47 -24 -17 -29 c-33 -56 -68 -77 -130 -77 -31 0 -74 3 -94 6 l-38 7
0 67 c0 37 3 70 8 74 4 5 45 6 92 4 62 -4 97 -11 132 -28z"/>
<path d="M5115 16998 c-3 -7 -4 -97 -3 -198 l3 -185 258 -3 c141 -1 257 1 257
5 0 14 -144 73 -196 82 -70 11 -174 2 -181 -15 -9 -23 -39 -16 -52 12 -13 30
-6 64 13 64 7 0 20 8 29 18 20 22 27 196 9 214 -18 18 -130 24 -137 6z"/>
<path d="M5280 17006 c0 -3 5 -17 10 -31 8 -22 13 -25 24 -16 11 9 24 8 55 -5
23 -9 44 -14 47 -11 9 9 104 -102 104 -121 0 -9 3 -28 7 -41 l6 -24 -136 7
c-97 5 -137 4 -142 -4 -15 -24 15 -35 85 -31 81 3 173 -13 216 -40 17 -10 34
-19 38 -19 8 0 8 166 0 263 l-7 77 -153 0 c-85 0 -154 -2 -154 -4z"/>
<path d="M5780 17008 c-11 -64 -46 -385 -43 -390 2 -5 44 -8 94 -8 l89 0 0 34
c0 19 -6 67 -14 108 -8 41 -17 111 -21 156 l-8 82 136 0 136 0 7 -36 c12 -63
-4 -313 -25 -402 -10 -46 -21 -85 -23 -87 -1 -2 -502 -6 -1113 -10 -757 -5
-1229 -4 -1485 4 -206 6 -996 18 -1755 26 -759 8 -1458 17 -1552 19 l-173 5 0
-75 0 -75 188 6 c103 3 313 11 467 18 404 17 877 15 1215 -7 246 -16 363 -18
855 -13 417 5 957 0 2010 -17 792 -14 1443 -22 1447 -20 4 3 8 58 8 122 0 239
25 346 86 375 40 19 58 55 69 135 l7 52 -301 0 c-166 0 -301 -1 -301 -2z"/>
<path d="M35335 16696 c-64 -15 -145 -54 -152 -72 -3 -8 -2 -25 1 -38 5 -21
19 -27 113 -50 60 -14 162 -42 228 -62 82 -24 149 -37 212 -41 l92 -6 14 34
c20 48 49 70 109 84 29 7 46 15 38 18 -8 2 -85 28 -170 56 -274 92 -364 107
-485 77z"/>
<path d="M49326 16593 c12 -53 11 -66 -12 -168 -14 -60 -27 -117 -30 -127 -4
-12 8 -20 48 -34 48 -16 100 -18 538 -19 267 -1 502 -5 523 -10 40 -8 57 -32
57 -80 0 -17 8 -26 31 -34 18 -6 34 -11 35 -11 10 0 2 59 -11 84 -8 15 -15 32
-15 37 0 5 36 9 80 9 l80 0 0 205 0 205 -669 0 -668 0 13 -57z"/>
<path d="M35058 16586 c-81 -29 -211 -97 -210 -111 2 -17 61 -25 182 -27 73
-1 131 3 160 12 26 7 88 13 145 13 l100 -1 -57 18 c-31 9 -87 23 -125 30 -80
15 -89 20 -97 60 -7 36 -12 36 -98 6z"/>
<path d="M36040 16533 c-112 -10 -166 -42 -176 -102 -5 -34 -11 -38 -76 -65
-74 -30 -142 -81 -135 -100 7 -17 -355 -221 -438 -247 -52 -16 -105 -23 -209
-27 -124 -4 -154 -2 -288 24 l-150 29 5 76 c3 42 1 82 -3 89 -5 8 -37 -27 -98
-106 -50 -66 -122 -151 -160 -190 l-70 -71 43 -56 c74 -94 96 -106 231 -122
220 -28 507 -45 739 -44 138 0 222 4 210 9 -11 5 -54 9 -95 9 l-75 1 50 32
c46 29 112 61 357 176 93 43 262 150 398 252 89 66 239 145 296 156 19 3 34 9
34 13 0 4 -56 22 -126 41 -120 32 -160 50 -113 50 47 0 150 23 142 31 -5 5
-49 31 -99 57 -49 27 -105 57 -124 68 -21 12 -49 19 -70 17z"/>
<path d="M34733 16412 c-41 -29 -135 -132 -121 -132 143 -2 331 -12 423 -24
238 -29 517 -33 489 -6 -21 20 -194 51 -359 65 -227 20 -270 32 -327 90 -24
25 -45 45 -48 45 -3 0 -29 -17 -57 -38z"/>
<path d="M35195 16434 c-38 -11 -85 -14 -197 -11 -160 4 -170 -1 -84 -42 31
-16 84 -24 216 -36 226 -20 288 -30 383 -62 l78 -27 47 46 c26 25 65 55 87 66
l40 20 -35 6 c-295 49 -464 62 -535 40z"/>
<path d="M36320 16351 c-32 -6 -24 -9 81 -39 63 -17 133 -38 155 -45 l39 -14
-70 -7 c-154 -15 -246 -52 -390 -156 -155 -111 -332 -225 -401 -257 -38 -18
-132 -62 -209 -100 -136 -65 -139 -67 -100 -70 45 -3 145 -34 145 -44 0 -4
-28 -12 -63 -18 -196 -34 -1067 19 -1138 70 -14 10 -51 45 -82 78 -30 33 -58
57 -61 54 -12 -12 -6 -33 9 -33 8 0 15 -5 15 -10 0 -6 -7 -13 -15 -16 -23 -9
-19 -76 6 -108 54 -69 203 -111 444 -125 224 -14 219 -12 210 -70 -3 -25 -20
-100 -37 -166 -57 -222 -39 -355 62 -449 49 -46 52 -47 108 -44 54 3 58 5 74
38 31 64 25 87 -45 154 -47 45 -68 74 -81 111 -23 68 -38 211 -34 325 l3 95
17 -84 c22 -107 39 -125 182 -195 148 -72 207 -90 291 -90 113 0 220 53 370
183 39 34 74 61 78 61 5 0 -7 -28 -25 -62 -43 -81 -137 -175 -216 -217 -70
-37 -202 -81 -243 -81 -51 0 -109 29 -216 110 -59 45 -109 77 -111 71 -4 -13
34 -100 56 -125 40 -45 273 -126 362 -126 105 0 169 41 265 170 107 143 205
220 282 220 42 0 218 59 266 90 71 45 123 97 173 171 49 74 98 184 89 199 -16
25 10 28 53 6 88 -45 112 -91 87 -172 -8 -27 -15 -68 -15 -91 0 -41 17 -93 29
-93 7 0 64 185 81 262 5 26 17 93 25 149 9 57 17 105 19 107 7 6 38 -110 47
-177 16 -112 -13 -203 -105 -324 -17 -23 -39 -55 -49 -70 -30 -47 -43 -44
-118 28 l-70 68 -28 -44 c-33 -52 -86 -101 -141 -129 -22 -11 -104 -38 -182
-61 -194 -55 -228 -76 -307 -190 -40 -58 -102 -97 -277 -176 -107 -47 -178
-99 -203 -146 l-14 -26 -84 70 c-118 97 -156 103 -166 28 -3 -24 -13 -49 -22
-55 -10 -7 -31 -72 -55 -166 -93 -370 -115 -533 -87 -649 15 -67 11 -175 -8
-173 -22 2 -46 54 -56 119 -7 41 -9 147 -6 260 4 164 8 203 31 287 14 54 29
122 32 152 l7 55 -55 60 c-86 92 -133 170 -157 258 -11 44 -21 90 -21 104 0
36 -11 69 -22 69 -21 0 -148 42 -148 49 0 5 51 68 114 142 l114 134 -66 3
c-90 4 -175 -13 -245 -51 -108 -57 -169 -152 -258 -404 -33 -92 -77 -198 -99
-235 -63 -105 -62 -97 3 62 93 229 164 478 174 611 l6 86 -48 12 -47 12 -37
-42 c-20 -24 -44 -55 -53 -70 -9 -15 -47 -51 -85 -82 -89 -70 -157 -146 -246
-271 l-72 -101 -3 73 c-2 40 2 98 8 130 12 67 60 170 102 218 35 40 115 87
178 105 25 7 49 16 54 20 5 4 -15 19 -44 34 l-52 27 -69 -17 c-119 -29 -238
-124 -292 -232 -61 -121 -72 -217 -52 -467 37 -477 39 -422 -20 -634 -8 -29
-19 -113 -24 -185 -10 -137 -20 -177 -66 -268 -27 -52 -117 -194 -138 -214
-15 -15 1 200 24 324 10 58 28 138 39 176 140 508 144 530 140 755 -9 439 -4
489 58 603 56 104 128 143 414 222 68 18 136 44 160 60 l43 29 -35 14 c-61 25
-95 25 -162 3 -134 -44 -236 -47 -275 -8 -13 12 -2 17 84 32 54 10 138 21 187
24 77 5 91 9 104 29 l14 22 -191 0 c-183 0 -194 -1 -239 -24 -80 -41 -194
-127 -273 -205 -85 -85 -132 -172 -165 -301 -29 -115 -25 -324 10 -500 53
-265 46 -350 -41 -524 -60 -120 -74 -158 -82 -236 -15 -128 14 -284 80 -430
21 -48 39 -94 39 -102 0 -7 -26 -26 -59 -41 -114 -52 -188 -137 -293 -338 -31
-58 -95 -168 -143 -245 -101 -160 -140 -240 -154 -321 -15 -78 -13 -220 4
-398 21 -213 20 -256 -9 -313 -53 -105 -86 -220 -86 -301 0 -103 19 -172 90
-321 105 -222 111 -285 44 -490 -20 -63 -68 -230 -106 -370 -172 -636 -189
-726 -195 -1027 -3 -123 -2 -266 2 -318 7 -90 8 -95 30 -95 42 0 218 -50 284
-80 123 -57 221 -122 221 -146 0 -11 -13 -129 -30 -260 -16 -131 -61 -509
-100 -839 -39 -330 -82 -690 -95 -800 -14 -110 -36 -342 -50 -515 -13 -173
-38 -407 -55 -520 -71 -476 -80 -577 -100 -1047 -10 -237 -25 -375 -74 -691
-52 -330 -47 -384 48 -513 98 -132 123 -236 132 -554 8 -251 -4 -424 -46 -654
-49 -278 -57 -444 -43 -929 l6 -233 26 6 c54 13 180 74 270 130 l94 58 -6 85
c-4 52 -12 92 -22 106 -52 71 -86 109 -131 144 -83 65 -99 99 -99 212 0 85 16
494 45 1130 6 124 15 349 20 500 14 356 31 595 85 1200 24 272 49 572 55 665
6 94 15 226 19 295 11 153 165 1889 186 2090 9 80 33 343 55 585 43 482 55
550 119 680 64 128 144 212 264 275 26 14 47 28 47 31 0 9 -31 20 -180 66
l-125 39 -3 48 c-5 74 24 195 85 361 64 173 82 233 113 365 26 113 67 234 143
425 30 77 71 196 91 264 42 141 65 192 98 213 35 22 108 49 108 39 0 -4 -31
-73 -69 -152 -107 -224 -141 -314 -141 -377 0 -68 34 -170 145 -433 113 -267
158 -420 185 -622 5 -43 20 -108 33 -145 32 -95 157 -319 182 -326 11 -3 79
-40 150 -82 287 -169 354 -180 875 -145 642 43 885 74 919 115 6 6 15 59 22
118 10 83 10 128 1 202 -7 52 -12 115 -12 140 0 46 0 46 -57 75 -186 93 -295
226 -487 591 -139 263 -214 363 -303 401 -25 10 -102 35 -171 55 -70 19 -157
51 -194 71 -122 64 -242 205 -268 314 -17 70 -7 127 40 229 45 99 49 133 19
192 -27 52 -111 137 -164 163 -36 19 -42 28 -63 90 -56 173 -96 392 -90 492
l3 48 32 -56 c17 -31 46 -105 63 -164 45 -153 118 -294 185 -355 l27 -25 -17
40 c-9 22 -19 47 -22 55 -3 8 32 -23 78 -70 69 -71 93 -89 137 -102 28 -9 52
-12 52 -7 0 5 -13 44 -30 87 -16 42 -63 174 -104 292 -114 330 -233 650 -262
705 -15 28 -32 70 -39 95 -19 68 -119 299 -159 368 -75 126 -160 197 -434 363
-68 41 -156 100 -195 131 l-72 58 -23 -28 c-25 -31 -102 -174 -102 -191 0 -6
11 -11 24 -11 41 0 178 -50 238 -86 159 -97 261 -237 373 -509 88 -214 203
-560 190 -573 -2 -2 -29 47 -61 109 -31 63 -75 141 -99 174 -63 89 -113 188
-211 410 -119 274 -135 296 -251 355 -154 77 -280 58 -386 -59 -88 -98 -185
-288 -218 -428 -46 -195 -39 -182 -170 -321 -153 -162 -170 -187 -178 -259 -9
-81 -31 -83 -31 -2 0 142 53 269 231 554 66 105 142 245 184 337 79 172 128
250 235 378 139 166 236 334 270 466 16 62 20 124 24 382 6 379 17 672 26 672
10 0 46 -70 66 -130 16 -46 19 -86 19 -235 0 -271 -22 -701 -39 -763 -11 -42
-57 -145 -93 -213 -2 -3 35 -14 82 -23 85 -17 87 -17 162 5 69 21 78 27 114
74 47 62 65 104 84 196 29 136 13 332 -45 562 -17 66 -29 121 -27 123 10 10
226 -226 247 -271 74 -152 0 -435 -155 -591 -33 -34 -78 -70 -100 -82 -31 -15
-44 -30 -57 -66 l-17 -45 141 -133 c194 -184 286 -296 354 -433 30 -60 63
-144 73 -185 31 -124 60 -177 147 -261 137 -134 265 -238 403 -331 73 -49 181
-131 240 -182 153 -133 245 -201 328 -241 40 -20 99 -51 130 -70 31 -19 59
-33 61 -30 5 5 -136 662 -149 697 -15 38 -114 149 -189 210 -68 57 -247 175
-338 223 l-53 29 6 110 c2 61 7 174 10 251 8 200 31 343 74 469 12 32 25 94
31 139 5 44 11 81 13 83 1 1 27 -13 57 -32 30 -19 97 -58 147 -86 51 -28 139
-87 194 -130 l102 -79 29 28 c16 15 58 82 93 149 36 67 70 126 77 131 7 6 33
13 57 17 48 7 161 56 229 99 42 27 42 28 42 87 0 34 4 60 10 60 6 0 53 -9 106
-21 52 -11 104 -19 116 -17 32 5 47 61 64 248 8 91 37 280 64 420 26 140 53
293 60 340 l12 85 104 100 c121 117 166 181 196 279 57 186 5 382 -143 541
-70 74 -132 118 -284 197 -113 59 -138 65 -225 49z m-110 -1401 c223 -36 257
-63 239 -194 -9 -70 -90 -408 -96 -403 -3 4 20 197 43 357 l6 45 -83 57 c-101
69 -125 78 -192 77 -90 -2 -109 -10 -123 -51 -7 -20 -10 -39 -7 -42 4 -3 79
-6 167 -6 l161 -1 -41 -37 c-23 -20 -74 -54 -115 -76 -112 -59 -142 -83 -135
-112 8 -30 -9 -31 -28 -1 -21 33 -117 297 -111 306 2 5 19 11 36 15 17 3 59
24 92 46 47 32 66 39 91 35 17 -2 60 -9 96 -15z m-2582 -1966 c85 -19 136 -47
205 -113 136 -129 238 -297 301 -494 44 -139 56 -215 57 -359 1 -177 -19 -251
-118 -440 -78 -147 -139 -228 -212 -278 -34 -22 -61 -37 -61 -31 0 5 43 85 97
178 167 292 207 388 220 539 19 229 -122 595 -305 786 -60 64 -161 136 -237
169 l-46 20 -44 -25 c-69 -41 -146 -117 -214 -213 -118 -164 -149 -256 -206
-611 -24 -149 -78 -370 -104 -432 -8 -19 -10 30 -7 190 6 242 24 355 89 530
88 238 170 371 331 538 l71 73 60 -6 c33 -4 88 -13 123 -21z"/>
<path d="M35960 14751 c0 -12 42 -114 52 -125 5 -6 19 -2 36 11 16 11 57 35
93 53 35 18 75 41 88 51 23 19 22 19 -123 19 -80 0 -146 -4 -146 -9z"/>
<path d="M33620 12957 c0 -3 28 -23 63 -44 136 -87 241 -211 327 -388 107
-218 153 -421 131 -574 -21 -144 -66 -252 -205 -490 -36 -62 -66 -116 -66
-119 0 -3 14 7 31 24 72 69 207 316 241 443 40 150 25 384 -38 578 -73 227
-249 471 -386 536 -56 27 -98 41 -98 34z"/>
<path d="M33105 12493 c-58 -143 -101 -310 -120 -468 -38 -315 -3 -240 59 125
20 113 44 239 55 280 18 73 21 100 6 63z"/>
<path d="M16845 16321 c-78 -7 -70 -10 63 -31 39 -7 72 -16 72 -21 0 -12 -20
-11 -125 6 -117 19 -125 19 -125 -4 0 -12 11 -21 32 -27 19 -6 34 -17 36 -28
5 -25 -72 -96 -105 -96 -25 0 -25 0 -8 26 17 27 17 27 -6 20 -13 -3 -63 -9
-111 -13 -49 -3 -88 -9 -88 -13 0 -3 28 -26 61 -51 34 -25 94 -84 135 -136 78
-96 124 -133 168 -133 34 0 74 -21 105 -54 19 -20 34 -26 67 -26 l42 0 22 66
c12 36 24 63 27 60 3 -3 5 -44 4 -91 -1 -64 1 -85 11 -85 7 0 59 29 116 64 56
36 112 68 125 71 21 6 21 5 -3 -17 -14 -13 -39 -34 -56 -48 -27 -23 -30 -31
-29 -85 l0 -60 50 -6 c28 -4 137 -36 244 -72 l195 -66 30 22 c110 76 134 106
186 242 14 37 36 72 58 91 l35 30 -76 91 c-105 124 -171 183 -264 231 -108 56
-206 87 -353 111 -112 19 -393 43 -445 39 -11 -1 -51 -4 -90 -7z"/>
<path d="M2025 16293 c-27 -2 -108 -11 -180 -20 -94 -12 -208 -17 -415 -17
-157 -1 -260 -4 -230 -8 74 -9 553 -28 718 -28 106 0 132 -3 132 -14 0 -8 -9
-58 -20 -112 -33 -164 -26 -155 -66 -90 -50 78 -68 86 -214 86 -66 0 -120 -4
-120 -8 0 -5 9 -17 20 -27 16 -15 42 -19 130 -23 108 -4 142 -16 78 -26 -18
-3 -247 -12 -508 -21 -261 -8 -497 -18 -525 -20 l-50 -5 35 31 c83 72 173 95
352 86 66 -3 116 -2 112 3 -17 16 -119 40 -171 40 -29 0 -112 -12 -185 -26
-97 -19 -149 -25 -194 -21 l-61 6 38 -126 c22 -69 39 -127 39 -129 0 -3 172
-2 383 2 384 6 628 -2 791 -28 77 -12 79 -12 97 11 10 13 26 46 34 74 16 54
68 301 79 375 7 47 19 43 -99 35z"/>
<path d="M16445 16293 c-50 -11 -104 -38 -145 -72 -25 -20 -75 -58 -111 -84
-61 -43 -77 -63 -155 -181 l-19 -29 25 15 c14 9 103 59 198 112 94 54 172 101
172 107 0 5 8 9 18 9 22 0 185 92 185 105 1 18 -113 31 -168 18z"/>
<path d="M636 16251 c-12 -18 -9 -97 4 -118 8 -12 23 -24 35 -27 38 -11 150
-6 220 10 111 24 225 33 280 23 27 -5 78 -23 113 -39 80 -37 164 -40 250 -9
41 15 92 22 183 26 148 7 183 -2 233 -57 l35 -39 10 47 c5 26 13 64 16 85 l7
37 -38 0 c-22 0 -174 5 -339 10 -346 11 -526 25 -606 45 -64 17 -394 21 -403
6z"/>
<path d="M34598 16168 c-2 -46 -1 -87 3 -91 3 -5 55 -20 115 -34 89 -20 134
-25 249 -25 179 0 259 20 400 99 183 103 182 93 5 92 -89 0 -235 9 -343 21
-104 11 -242 20 -307 20 l-118 0 -4 -82z"/>
<path d="M49667 16222 c-31 -2 -50 -8 -54 -18 -3 -8 -3 -17 0 -20 5 -5 658
-44 750 -44 l58 0 -3 33 c-3 31 -5 32 -58 39 -59 7 -612 15 -693 10z"/>
<path d="M49323 16081 c-34 -48 -72 -110 -84 -137 -35 -82 -79 -273 -88 -382
-14 -166 15 -645 45 -754 7 -23 74 -46 174 -58 174 -21 841 -6 1275 28 l90 7
7 70 c3 39 14 191 23 338 19 305 12 507 -26 688 -33 161 -56 202 -131 233 -20
9 -39 20 -43 26 -12 20 -25 10 -25 -19 0 -40 -12 -45 -68 -27 -33 11 -165 21
-442 36 -217 11 -439 25 -494 30 -158 16 -143 21 -213 -79z"/>
<path d="M2404 16149 c-120 -20 -173 -55 -194 -127 -9 -32 -8 -34 13 -29 82
20 250 38 307 32 161 -16 264 -118 336 -334 18 -53 37 -97 42 -99 6 -2 23 15
38 38 20 30 29 58 32 101 4 54 0 68 -32 133 -68 138 -239 261 -396 286 -73 11
-75 11 -146 -1z"/>
<path d="M235 16118 c-127 -45 -205 -181 -205 -355 0 -161 58 -303 169 -414
78 -78 151 -111 246 -113 54 -1 71 5 160 49 l100 50 515 3 c472 3 528 1 673
-18 l157 -20 87 -71 c98 -80 98 -80 199 -24 122 68 239 200 259 292 9 43 -9
102 -41 137 l-27 28 -21 -74 c-12 -41 -40 -103 -63 -139 l-41 -64 -77 3 c-43
2 -112 9 -154 17 -42 8 -95 15 -118 15 -41 0 -42 1 -53 43 -6 23 -15 58 -21
77 -5 19 -9 65 -9 103 l0 67 -575 0 c-452 0 -577 -3 -580 -12 -44 -126 -95
-205 -166 -252 -166 -112 -406 -50 -496 128 -22 44 -25 59 -21 127 4 60 10 86
32 124 59 100 142 165 213 165 32 0 120 -28 172 -54 l32 -17 -16 37 c-55 133
-205 206 -330 162z"/>
<path d="M16211 16012 c-173 -98 -202 -117 -186 -126 10 -6 32 -23 50 -38 17
-15 51 -31 74 -37 23 -5 44 -11 45 -13 2 -1 17 -24 35 -50 21 -31 41 -50 59
-54 58 -13 71 -21 104 -64 32 -42 50 -57 129 -105 64 -39 74 -44 101 -50 16
-3 39 -23 62 -55 19 -27 50 -57 67 -65 29 -15 30 -18 16 -32 -14 -15 -13 -20
13 -58 40 -58 76 -87 173 -137 45 -23 97 -59 117 -79 l35 -36 64 33 c52 26 59
33 40 36 -13 1 -23 5 -21 8 2 3 -1 17 -7 31 -10 27 -9 27 47 34 80 10 119 31
159 87 20 28 46 51 61 55 45 11 172 -42 157 -67 -9 -14 57 -56 175 -109 63
-29 119 -57 124 -61 6 -6 -10 -17 -37 -29 l-47 -20 0 -72 0 -72 21 28 c12 14
22 36 23 48 1 16 8 22 24 22 15 0 30 12 44 33 11 17 24 32 29 32 14 0 11 -12
-12 -50 -12 -19 -17 -36 -13 -37 41 -14 71 -44 153 -146 52 -64 96 -116 98
-114 2 2 -2 27 -9 56 -13 59 -2 85 27 61 13 -11 18 -10 30 6 8 10 15 28 15 40
0 36 -80 94 -130 94 -25 0 -26 26 -2 38 9 5 55 12 102 16 47 4 100 12 118 18
27 10 32 17 32 44 0 29 -4 34 -56 54 -47 20 -55 26 -51 44 3 12 11 41 17 66
22 87 0 202 -75 387 -36 91 -55 109 -55 54 0 -15 -13 -65 -28 -111 l-29 -85
-43 -3 c-24 -2 -55 -12 -69 -22 -32 -22 -94 -40 -141 -40 -32 0 -29 3 45 40
44 21 85 39 92 40 7 0 19 23 28 52 15 51 55 248 55 271 0 29 -41 -36 -71 -113
-37 -93 -74 -141 -157 -202 -64 -48 -60 -48 -269 23 -164 57 -245 79 -285 79
-27 0 -27 1 -30 69 l-3 69 -75 -44 -75 -44 -6 52 c-3 29 -7 46 -8 38 -1 -8
-10 -26 -20 -39 l-18 -24 -44 32 c-24 17 -60 45 -80 61 -24 21 -52 33 -89 39
-57 9 -77 26 -218 190 -29 33 -59 61 -65 61 -7 0 -31 -35 -55 -77 l-43 -77
143 -143 143 -143 178 0 c160 0 182 2 219 21 29 15 43 18 51 10 8 -8 2 -15
-21 -23 -18 -7 -32 -15 -32 -18 0 -3 45 -31 100 -64 55 -32 100 -60 100 -61 0
-5 -122 51 -185 85 -55 30 -58 30 -205 30 l-150 0 37 -34 c21 -18 56 -43 79
-54 22 -11 46 -28 54 -36 7 -9 44 -33 81 -52 38 -20 69 -43 69 -50 0 -8 -2
-14 -4 -14 -9 0 -124 70 -151 93 -16 13 -48 34 -71 45 -22 11 -46 28 -54 37
-8 9 -32 26 -54 37 -45 22 -346 315 -346 336 0 7 21 49 46 93 25 45 44 82 42
83 -2 2 -19 15 -39 29 -20 15 -42 27 -50 26 -8 0 -106 -53 -218 -117z"/>
<path d="M15863 15861 c-220 -76 -291 -316 -143 -484 l32 -37 -25 0 c-41 0
-130 21 -153 37 -12 7 -38 40 -57 71 -20 32 -45 66 -56 76 -21 19 -21 18 -48
-40 -24 -50 -28 -72 -28 -145 0 -81 2 -90 44 -174 51 -102 118 -177 177 -195
22 -7 124 -15 237 -17 108 -3 197 -8 197 -12 0 -4 -44 -36 -97 -71 -123 -79
-139 -94 -171 -155 -39 -76 -37 -149 8 -245 33 -71 35 -81 34 -175 0 -66 -10
-146 -28 -238 -17 -83 -26 -151 -22 -171 8 -41 40 -71 85 -80 47 -9 163 11
183 32 10 10 41 114 78 261 62 246 72 281 83 264 3 -5 -23 -122 -57 -260 -63
-251 -63 -251 -43 -271 27 -27 14 -44 -28 -36 -28 5 -34 2 -40 -15 -12 -40 -8
-116 9 -149 22 -42 55 -193 56 -250 0 -55 -19 -99 -60 -137 -17 -16 -41 -48
-52 -70 l-21 -40 44 36 c59 48 75 55 136 62 78 9 126 39 195 122 33 42 63 74
65 72 2 -2 0 -28 -4 -57 -8 -51 -10 -54 -43 -63 -19 -5 -46 -19 -60 -32 -14
-12 -44 -32 -67 -44 -24 -12 -50 -33 -59 -47 -17 -26 -199 -174 -214 -174 -10
0 -20 25 -20 51 0 10 -4 19 -8 19 -5 0 -55 -19 -112 -43 l-102 -43 -46 -112
c-25 -61 -44 -113 -41 -115 159 -128 172 -137 185 -126 10 8 32 5 85 -12 84
-27 115 -50 127 -99 l8 -35 140 1 c76 1 151 6 166 12 17 7 30 23 38 47 11 33
10 39 -11 61 -12 13 -31 24 -41 24 -16 0 -18 9 -18 75 l0 76 24 -18 c27 -20
36 -42 36 -89 0 -18 8 -38 20 -49 19 -17 21 -17 59 21 36 37 44 55 66 149 l7
30 24 -30 c13 -16 27 -38 30 -49 6 -17 14 -18 81 -13 134 10 180 53 234 217
37 112 59 157 91 186 21 20 80 54 92 54 3 0 8 -21 12 -47 11 -79 34 -135 76
-185 65 -78 63 -112 -25 -498 l-34 -145 111 -3 c100 -3 122 0 221 29 61 17
137 44 171 59 64 29 70 35 236 250 68 89 108 130 108 113 0 -6 -13 -43 -30
-84 -16 -41 -22 -63 -12 -49 68 100 199 199 340 256 75 30 242 78 248 71 7 -7
-33 -64 -61 -89 -11 -10 -80 -53 -153 -95 -99 -58 -145 -91 -177 -129 -51 -59
-145 -193 -145 -206 0 -14 73 42 220 168 268 230 386 296 560 311 l75 6 -85
-58 c-165 -112 -426 -314 -487 -377 -34 -35 -117 -146 -185 -248 -68 -102
-153 -225 -188 -275 l-65 -90 -3 48 -3 49 -38 -79 c-21 -43 -62 -132 -91 -198
-192 -436 -305 -656 -437 -850 -42 -60 -84 -133 -94 -162 -26 -77 -189 -786
-189 -824 0 -14 142 137 198 210 58 75 158 283 223 461 65 181 115 339 234
745 130 443 180 582 222 616 16 14 16 19 -2 -121 -26 -213 -92 -478 -199 -802
-112 -340 -205 -573 -352 -879 -164 -344 -185 -416 -164 -553 12 -80 12 -92
-7 -169 -11 -46 -42 -132 -67 -192 -54 -127 -258 -528 -319 -628 l-42 -69 -47
6 -47 5 -10 -36 c-6 -20 -9 -39 -7 -41 7 -6 98 44 194 107 51 34 128 96 171
139 122 120 153 198 171 424 17 213 38 289 132 480 44 90 107 228 140 308 33
80 91 210 128 290 38 80 74 166 80 190 21 78 88 455 82 465 -10 17 -11 55 -1
60 13 9 37 -18 41 -46 11 -82 43 30 133 464 88 429 129 572 214 753 102 214
197 323 348 398 93 46 106 56 258 212 187 191 215 208 335 208 41 0 105 -6
143 -13 57 -11 66 -16 55 -28 -27 -33 -146 -74 -258 -88 -30 -4 -67 -13 -81
-21 -14 -7 -87 -82 -162 -166 -75 -84 -183 -193 -239 -243 -265 -232 -293
-271 -390 -540 -81 -226 -127 -430 -333 -1494 -113 -586 -204 -1068 -203
-1073 2 -4 53 41 114 100 152 147 177 206 194 457 18 251 28 305 122 624 169
580 180 638 185 1036 4 339 9 379 65 489 82 163 254 367 383 453 265 178 502
200 660 62 38 -34 129 -149 122 -155 -2 -2 -28 9 -58 25 -212 114 -416 77
-664 -120 -175 -139 -228 -192 -286 -290 -101 -169 -123 -260 -133 -529 -10
-259 -23 -370 -76 -630 -55 -269 -74 -407 -95 -710 -24 -333 -56 -503 -113
-606 -38 -70 -215 -251 -382 -391 -204 -172 -228 -196 -309 -301 -83 -110
-131 -149 -289 -235 -182 -100 -418 -231 -462 -256 l-35 -20 40 -1 c22 0 447
25 945 56 903 55 905 55 948 81 63 36 52 4 -13 -39 l-50 -33 -3 -157 -3 -158
53 23 53 23 5 56 c3 31 8 59 12 63 3 4 26 -12 50 -36 l43 -42 6 109 c4 82 1
125 -11 176 -18 75 -13 94 28 103 16 3 46 24 67 45 41 42 85 54 85 24 0 -10
-6 -14 -14 -11 -7 3 -30 -11 -50 -32 l-36 -37 0 -186 0 -186 31 -66 c43 -92
50 -175 19 -242 -25 -55 -40 -43 -20 17 16 47 9 154 -13 195 l-16 29 -1 -37
c0 -29 -6 -41 -30 -58 l-30 -21 0 63 c0 62 -1 65 -45 108 l-45 44 0 -44 0 -45
-69 -31 c-66 -30 -70 -34 -80 -75 -28 -109 -27 -109 -35 -24 -4 44 -11 91 -15
105 -7 22 -9 20 -15 -20 -3 -25 -7 -74 -8 -110 -3 -57 -1 -65 15 -65 10 0 21
-6 26 -13 5 -9 22 7 56 50 l48 62 23 -63 c20 -57 75 -131 96 -131 4 0 8 14 8
31 0 30 1 30 48 27 42 -3 47 -5 44 -25 -2 -13 2 -23 7 -23 19 0 12 -27 -11
-42 -49 -32 -61 -30 -125 22 -48 39 -66 61 -80 100 l-19 51 -47 -60 -47 -59 0
-346 0 -346 -35 0 -34 0 -3 383 c-3 433 3 553 32 627 11 28 20 73 20 100 l0
50 -60 0 c-41 0 -74 -7 -99 -20 -74 -37 -84 -112 -60 -445 14 -209 6 -743 -15
-964 -9 -84 -17 -155 -19 -158 -11 -10 -118 124 -129 161 l-12 39 -13 -69 c-7
-38 -15 -84 -18 -102 -5 -25 -3 -32 6 -27 25 16 80 23 84 12 2 -7 8 -183 14
-392 6 -209 14 -419 17 -467 3 -49 2 -88 -3 -88 -12 0 -59 95 -73 147 -6 23
-15 120 -20 215 -5 95 -16 200 -25 233 -17 62 -74 176 -91 182 -7 2 -15 -138
-22 -399 -7 -222 -15 -442 -19 -490 l-6 -88 28 -10 c21 -8 30 -8 36 1 5 8 10
6 17 -8 13 -23 135 -73 180 -73 20 0 32 -5 32 -13 0 -11 167 -87 190 -87 3 0
4 47 2 105 -3 86 -1 105 11 105 8 0 22 10 30 22 15 21 16 12 16 -132 l1 -155
-124 3 -123 3 -7 -58 c-5 -43 -14 -67 -36 -93 l-29 -35 -1 93 0 92 -90 0 c-83
0 -90 -1 -90 -20 0 -16 -7 -20 -35 -20 -28 0 -35 4 -35 20 0 18 -7 20 -71 20
l-71 0 -71 -58 c-40 -33 -92 -73 -117 -89 -56 -37 -286 -156 -399 -206 -79
-35 -84 -39 -68 -54 15 -15 47 -15 419 -3 222 7 406 14 411 17 4 2 7 65 7 139
0 74 3 134 8 134 4 -1 18 -17 31 -38 21 -33 23 -46 19 -118 l-4 -82 55 -12
c76 -17 88 -24 111 -70 26 -52 3 -56 -24 -5 -11 20 -24 34 -30 32 -6 -2 -14
-39 -18 -83 -8 -90 -25 -146 -63 -201 l-25 -38 42 -3 c40 -3 45 0 80 40 52 61
123 180 165 279 20 46 40 90 46 97 5 6 28 12 51 12 l43 0 17 -113 c10 -61 23
-161 29 -222 l12 -110 85 -2 c67 -2 80 0 63 9 -22 10 -42 54 -62 131 l-9 37
45 -32 c25 -18 69 -59 98 -90 47 -53 56 -58 93 -58 l42 0 0 -70 c0 -62 -2 -70
-19 -70 -15 0 -19 -10 -24 -60 -3 -34 -12 -71 -20 -83 -7 -12 -17 -58 -20
-102 -4 -44 -14 -118 -22 -165 -8 -47 -15 -119 -16 -160 -1 -71 -1 -74 -14
-45 -19 43 -45 176 -45 227 0 36 26 127 54 189 6 14 -1 14 -79 0 -53 -9 -85
-19 -85 -27 0 -7 12 -66 26 -131 25 -112 35 -243 24 -308 l-5 -30 115 -3 115
-2 103 125 c89 108 107 125 133 125 l29 0 0 -135 0 -135 -30 0 -29 0 -3 112
-3 112 -79 -94 c-116 -139 -99 -130 -240 -130 l-121 0 -35 -68 c-46 -89 -182
-223 -404 -396 -94 -74 -214 -176 -266 -228 -52 -52 -107 -102 -121 -112 -16
-10 -59 -20 -105 -24 l-79 -8 37 -22 c20 -13 38 -29 41 -36 8 -19 -21 -72 -68
-124 -23 -26 -67 -78 -99 -117 -79 -94 -142 -161 -177 -186 l-29 -20 0 285 0
285 53 3 52 3 -52 30 -53 30 -1 105 c-3 351 10 415 116 544 l44 55 -129 0
-130 1 -2 -283 -3 -282 -30 44 -30 45 -4 238 -3 238 -68 0 c-52 0 -78 -5 -105
-21 -46 -27 -53 -24 -169 75 -48 41 -104 82 -122 91 -19 9 -41 27 -50 39 -9
15 -32 28 -59 35 -49 12 -64 38 -17 27 15 -3 61 -11 101 -17 95 -14 140 -37
213 -110 51 -51 115 -97 122 -87 3 4 78 131 83 140 1 3 -6 4 -17 1 -31 -8 -24
11 13 31 17 10 46 31 62 46 20 19 46 29 79 34 27 3 52 8 54 11 3 3 -4 15 -16
28 -12 13 -22 26 -22 29 0 3 24 8 54 11 30 3 67 12 83 20 70 37 353 356 353
400 0 15 -104 -2 -209 -34 -65 -20 -128 -32 -195 -36 -122 -8 -121 3 5 48 59
21 86 35 77 40 -7 5 -58 9 -112 9 -98 0 -99 0 -81 -20 24 -26 9 -25 -68 4 -52
19 -87 24 -189 27 l-125 4 -107 -58 c-63 -35 -113 -57 -122 -53 -13 5 -15 16
-9 64 l7 58 -342 13 c-188 6 -344 10 -346 8 -10 -10 107 -167 183 -247 103
-109 162 -143 239 -138 l56 3 17 -55 c10 -30 30 -79 45 -109 53 -103 58 -133
63 -353 3 -138 2 -208 -5 -208 -13 0 -162 86 -244 141 -166 112 -451 334 -513
401 -66 71 -162 211 -317 461 -77 123 -78 124 -120 130 -23 3 -44 4 -47 2 -2
-2 19 -40 47 -83 28 -43 96 -157 152 -252 202 -348 269 -414 723 -719 l252
-168 245 33 c135 18 264 33 288 34 l42 0 0 -200 0 -200 -35 0 -35 0 0 188 0
188 -230 -30 c-126 -17 -230 -34 -230 -38 0 -3 17 -17 37 -29 76 -47 132 -110
85 -95 -16 6 -22 -13 -56 -171 -21 -98 -47 -197 -58 -220 -35 -76 -136 -146
-272 -189 -49 -16 -60 -16 -64 -5 -3 8 -22 48 -43 90 -41 81 -122 193 -288
396 l-103 127 -57 -6 c-118 -14 -117 -5 -16 -109 144 -146 251 -303 301 -441
l23 -64 -512 -5 c-535 -5 -601 -10 -842 -58 -202 -40 -314 -125 -428 -325 -71
-126 -117 -190 -117 -164 -2 68 -35 323 -65 500 -21 118 -42 264 -49 325 l-11
110 -38 -3 c-21 -2 -51 -7 -67 -12 l-29 -8 20 51 c11 29 44 97 73 152 29 55
56 113 60 128 36 151 -64 947 -155 1235 -17 50 -31 92 -32 92 -1 1 -92 5 -202
10 -248 11 -240 15 -214 -103 10 -45 19 -109 19 -141 0 -45 6 -70 25 -102 35
-59 14 -65 -26 -7 -30 46 -33 56 -50 223 -21 195 -22 249 -6 183 10 -43 20
-53 33 -32 4 8 64 9 205 4 110 -4 199 -4 199 -1 0 4 -11 26 -24 49 -13 23 -29
59 -34 80 l-11 37 57 29 c130 65 372 126 552 137 97 7 107 9 147 40 24 18 60
36 79 40 22 4 55 24 83 49 77 68 115 94 160 110 24 8 56 26 73 40 24 20 40 25
85 25 l55 0 -21 36 c-12 20 -20 38 -18 41 2 2 24 1 47 -3 41 -7 52 -15 83 -58
13 -18 34 -18 553 -11 l539 8 -50 23 c-27 13 -69 28 -91 34 -23 5 -59 24 -80
41 -50 40 -186 109 -244 123 -32 8 -50 20 -65 42 -14 22 -45 44 -100 70 -74
36 -98 56 -315 271 -213 211 -241 234 -287 248 -43 13 -56 23 -82 63 -17 27
-41 58 -53 70 -13 11 -111 60 -218 107 -107 48 -199 91 -205 96 -5 6 16 7 55
3 175 -15 243 -44 345 -144 39 -37 81 -71 95 -75 60 -16 82 -30 105 -69 13
-22 133 -149 267 -281 221 -219 249 -244 313 -272 39 -18 90 -38 115 -45 31
-9 51 -23 65 -44 13 -21 47 -45 103 -73 69 -34 92 -41 142 -41 59 0 60 0 82
-40 21 -36 27 -40 62 -40 22 0 53 9 72 21 19 11 39 17 45 14 6 -5 -6 -17 -31
-32 -22 -14 -39 -30 -38 -35 5 -15 85 -38 133 -38 l40 0 -28 28 c-15 15 -44
49 -63 75 l-35 49 123 -9 c68 -4 206 -8 308 -8 223 1 295 16 465 100 153 75
303 193 547 430 231 226 290 352 290 625 0 69 -3 229 -6 355 -5 164 -3 306 8
495 9 146 16 325 16 399 l0 134 -30 -6 c-46 -10 -107 -53 -134 -95 -37 -60
-63 -156 -91 -344 -35 -235 -50 -304 -95 -439 -44 -134 -101 -252 -173 -359
-104 -156 -257 -320 -335 -359 -58 -29 -437 -158 -546 -186 -184 -47 -336 -30
-429 46 -37 31 -103 117 -95 125 3 2 61 -8 129 -22 187 -40 298 -37 457 10 67
20 157 50 200 67 121 48 301 144 364 194 162 128 330 508 398 905 21 120 43
340 35 348 -3 3 -65 -17 -140 -43 -157 -57 -138 -24 -160 -270 -8 -88 -21
-181 -29 -207 -22 -74 -63 -136 -109 -165 -23 -15 -73 -56 -111 -91 -40 -37
-95 -76 -130 -93 -61 -28 -189 -59 -244 -59 -20 0 -43 -13 -76 -44 -58 -55
-118 -76 -210 -76 -144 1 -395 74 -482 140 -30 24 -53 44 -51 46 7 7 225 -36
293 -58 96 -31 266 -31 417 1 l108 22 178 120 c98 65 193 133 211 151 39 41
87 132 112 218 22 75 58 263 52 269 -9 9 -719 -91 -727 -102 -39 -60 -117
-190 -115 -192 2 -2 90 -4 195 -6 221 -5 211 1 163 -97 -53 -104 -202 -228
-345 -284 -77 -30 -168 -34 -240 -10 -33 11 -91 23 -128 27 -44 5 -66 11 -64
19 3 6 -2 19 -11 29 -14 16 -11 17 61 17 70 0 77 -2 77 -20 0 -18 7 -20 54
-20 81 0 201 26 270 58 36 17 93 58 136 98 42 38 98 88 125 110 l49 42 -182 7
-182 7 -62 -57 c-114 -105 -188 -127 -428 -123 l-165 3 0 30 0 30 160 1 c123
0 171 4 210 17 50 18 145 80 145 96 0 4 -118 11 -262 15 -490 13 -495 14 -536
40 -21 13 -43 30 -50 39 -16 19 -53 137 -44 137 4 0 32 -17 62 -38 46 -31 57
-45 71 -86 8 -28 19 -51 25 -52 5 -1 177 -8 382 -14 299 -10 376 -9 388 1 8 7
37 44 64 83 47 67 103 116 133 116 8 0 34 20 58 44 26 26 61 49 84 55 22 6
204 45 405 86 490 99 689 159 852 254 50 29 95 45 183 64 l117 25 -7 -27 c-37
-145 -44 -247 -23 -360 l12 -66 8 100 c4 64 17 130 34 184 29 90 29 91 -10
182 -5 12 5 21 43 38 27 11 57 21 66 21 23 0 95 38 133 71 17 16 57 36 87 44
30 9 55 20 55 23 0 4 -431 -19 -957 -51 l-958 -58 -115 -54 c-185 -86 -340
-143 -390 -145 -3 0 -14 15 -24 34 -16 30 -23 34 -73 40 -62 7 -91 21 -147 69
l-39 34 171 7 c242 11 267 15 358 67 62 34 105 71 203 171 120 124 125 128
166 128 l43 0 4 54 c6 70 22 93 113 161 41 31 93 77 116 103 111 126 232 510
264 835 5 48 3 67 -5 67 -19 0 -212 -102 -233 -123 -10 -10 -21 -16 -24 -14
-2 3 12 63 31 134 49 177 110 426 137 558 18 90 23 146 24 309 l2 198 69 37
c42 22 97 64 140 106 85 83 131 170 198 375 61 187 101 289 190 480 42 91 102
222 133 293 47 108 58 125 68 111 9 -12 19 -15 40 -10 l28 7 -5 -53 -5 -52 24
29 c62 76 140 202 130 212 -3 2 -41 11 -86 20 -61 12 -81 20 -81 32 0 17 24
123 35 156 13 37 -131 -230 -172 -320 -23 -50 -67 -153 -98 -230 -122 -301
-169 -384 -378 -668 -193 -263 -218 -330 -362 -957 -135 -587 -235 -879 -402
-1168 -78 -135 -247 -360 -314 -416 -71 -60 -213 -116 -300 -118 -60 -2 -115
22 -125 55 -3 10 -7 17 -9 15 -2 -2 -38 -149 -80 -328 -75 -316 -77 -328 -71
-418 5 -88 4 -95 -17 -116 -12 -12 -62 -37 -109 -54 -162 -58 -217 -90 -304
-177 -85 -84 -177 -215 -196 -277 -10 -33 -8 -41 16 -82 32 -55 111 -99 196
-110 30 -4 90 -16 134 -27 78 -20 284 -94 295 -106 11 -11 -213 5 -294 22 -85
18 -144 42 -186 75 l-25 21 -202 -56 c-111 -30 -206 -55 -210 -55 -4 -1 4 -7
18 -15 15 -8 53 -14 93 -15 37 0 67 -4 67 -10 0 -5 -7 -28 -16 -50 -20 -51
-39 -51 -88 -1 -21 21 -56 47 -77 57 -70 31 -51 42 176 104 l210 57 -31 16
c-38 19 -76 62 -93 106 -15 35 -22 36 -111 16 -110 -26 -226 -80 -485 -227
-208 -118 -385 -191 -498 -204 -32 -4 -60 -10 -62 -14 -3 -4 2 -27 10 -51 38
-108 7 -133 -485 -384 -428 -219 -479 -253 -545 -376 -59 -110 -190 -236 -329
-319 -220 -131 -320 -223 -364 -336 -11 -28 -26 -98 -32 -155 -14 -121 -34
-208 -61 -260 -17 -35 -19 -73 -23 -651 -6 -804 -51 -1869 -111 -2608 -38
-457 -54 -523 -178 -713 -196 -300 -600 -661 -816 -728 -61 -18 -80 -19 -236
-12 -93 4 -179 8 -190 8 -17 0 -20 -6 -17 -45 7 -113 41 -171 115 -191 43 -12
96 -10 347 12 218 19 466 6 657 -35 26 -6 36 3 133 114 58 66 107 120 110 120
3 0 33 -26 67 -59 34 -32 82 -68 106 -80 100 -49 241 -51 412 -5 160 42 187
56 212 107 29 60 38 63 51 19 11 -37 12 -38 97 -56 101 -22 199 -18 266 11 27
12 92 64 165 134 125 119 269 233 373 295 34 20 211 96 394 168 l332 132 3 38
c6 76 -27 182 -103 330 -119 229 -155 343 -156 494 -1 156 42 263 151 373 136
138 287 162 997 157 l448 -3 65 32 c101 50 117 51 175 7 221 -166 344 -340
411 -577 9 -35 21 -57 27 -54 7 2 36 12 65 22 32 12 52 25 52 34 0 31 43 -51
56 -107 14 -60 18 -337 5 -382 -7 -23 -10 -19 -31 35 -21 53 -24 80 -28 238
-2 98 -7 177 -11 175 -3 -2 -30 -12 -59 -22 -29 -11 -52 -25 -52 -31 0 -7 7
-56 15 -111 34 -225 7 -360 -88 -440 -17 -14 -80 -50 -140 -80 -59 -29 -128
-68 -151 -85 -56 -40 -91 -106 -105 -196 -18 -118 -25 -109 87 -116 53 -4 138
-10 188 -13 147 -11 175 12 319 263 39 67 72 118 73 112 2 -5 -4 -46 -13 -92
-23 -118 -81 -232 -158 -311 l-63 -65 -12 -177 c-7 -98 -11 -179 -9 -180 4 -5
919 25 924 30 2 2 4 35 5 73 0 61 -4 78 -40 149 -44 88 -55 100 -92 106 -18 2
-37 20 -64 61 -28 42 -41 55 -47 45 -16 -26 -30 6 -21 49 l9 39 -44 13 c-170
51 -294 364 -297 751 -1 147 10 277 25 300 7 12 15 9 38 -19 l28 -34 13 69
c10 53 12 173 7 544 -4 261 -10 553 -14 648 l-6 172 30 0 c30 0 30 -1 36 -67
4 -38 7 -198 7 -358 0 -419 27 -826 61 -935 6 -21 14 -186 18 -410 8 -395 9
-397 59 -497 12 -22 32 -47 46 -56 17 -11 26 -28 28 -51 3 -32 4 -34 22 -20
19 14 19 15 1 71 -43 137 -46 167 -55 463 -5 162 -14 358 -20 435 -17 203 -2
372 42 458 11 22 28 100 41 190 22 150 22 151 28 92 4 -33 7 -88 8 -121 1 -34
11 -93 24 -130 22 -68 22 -75 22 -649 0 -621 5 -692 50 -791 41 -91 130 -123
344 -124 l83 0 -6 38 c-31 173 -60 297 -77 326 -11 19 -35 42 -54 51 -33 15
-42 15 -147 -5 -62 -11 -116 -20 -120 -20 -4 0 -10 17 -13 38 -4 20 -13 67
-21 104 -8 37 -14 91 -14 120 l0 53 67 40 c114 68 156 77 354 83 250 6 353
-15 476 -98 153 -104 255 -309 298 -597 18 -120 34 -401 35 -596 0 -83 4 -126
10 -122 13 8 13 585 0 730 -25 269 -81 438 -190 572 -163 201 -487 286 -740
195 -47 -17 -133 -48 -192 -69 -58 -21 -110 -35 -113 -31 -17 17 68 291 134
433 67 143 350 585 374 585 53 -1 204 -49 388 -125 62 -26 149 -59 193 -75 87
-30 455 -110 731 -160 189 -33 248 -56 315 -121 80 -78 112 -184 129 -434 17
-237 40 -301 151 -429 50 -58 59 -64 104 -69 28 -4 51 -5 53 -4 1 2 14 304 28
673 13 368 29 746 35 839 21 339 30 905 36 2180 6 1367 -4 2324 -31 2755 -18
302 -18 485 1 800 9 153 15 403 15 624 -1 370 2 432 39 781 38 368 44 517 27
672 -9 76 -19 255 -22 398 -3 143 -13 346 -21 450 -8 105 -13 276 -13 380 2
197 -3 234 -51 390 -30 98 -95 263 -171 435 -80 180 -101 205 -177 215 -78 11
-79 12 -39 53 20 21 37 43 37 50 0 44 -165 293 -212 322 -47 28 -117 45 -131
31 -19 -19 -35 -12 -42 20 -5 23 -11 29 -23 24 -25 -11 -104 -35 -113 -35 -5
0 -2 19 6 41 41 114 0 155 -166 166 l-89 6 0 32 c0 32 0 32 61 38 121 11 237
93 293 207 38 76 51 139 50 245 -1 82 -6 112 -28 169 -48 125 -135 213 -248
252 -27 9 -48 17 -48 18 0 2 20 45 44 97 56 119 67 163 67 252 0 105 -31 197
-87 257 -47 50 -154 110 -197 110 -24 0 -25 -2 -20 -37 3 -21 15 -48 25 -60
32 -35 15 -43 -88 -43 l-95 0 20 -29 c12 -16 21 -35 21 -43 0 -26 -40 -78 -60
-78 -24 0 -24 9 0 -101 12 -51 19 -93 17 -95 -1 -2 -52 60 -112 138 -150 193
-155 198 -201 198 -33 0 -44 -7 -81 -47 -39 -45 -42 -46 -43 -23 -1 50 -11 70
-37 70 -18 0 -23 -4 -19 -17 16 -57 27 -110 41 -203 22 -145 50 -230 93 -280
23 -28 37 -38 42 -30 10 15 91 -97 126 -174 35 -78 42 -182 20 -316 -30 -174
-24 -222 29 -250 19 -10 22 -17 14 -31 -5 -11 -13 -27 -18 -37 -8 -16 3 -26
77 -68 57 -32 88 -56 92 -71 3 -12 17 -31 31 -42 l27 -21 66 25 c37 14 69 25
71 25 16 0 -45 -75 -61 -76 -65 -3 -70 -5 -82 -31 -6 -16 -28 -38 -48 -51 -41
-27 -50 -25 -189 36 -141 62 -249 149 -297 242 -17 34 -24 65 -26 130 -4 88 2
111 68 278 l20 54 -34 34 c-93 93 -166 196 -166 234 0 15 9 53 20 85 11 32 20
60 20 63 0 3 -24 -18 -54 -47 -30 -28 -62 -52 -70 -52 -9 -1 -20 -2 -25 -3 -6
-1 -38 26 -72 59 -68 65 -112 146 -124 226 -10 64 -14 69 -61 62 -41 -5 -42
-6 -50 -57 -7 -37 7 -456 15 -483 1 -1 13 -9 27 -16 l26 -14 -33 -21 c-71 -43
-116 -55 -195 -50 -41 3 -80 10 -87 17 -6 6 -15 11 -19 11 -13 0 -30 -51 -30
-87 l0 -33 -58 0 c-43 0 -59 -4 -64 -16 -8 -21 -50 -14 -54 9 -3 12 4 20 17
24 26 7 26 16 -1 65 l-23 40 25 19 c56 43 129 89 201 124 l76 38 35 201 c20
111 33 205 30 210 -3 5 -25 -31 -50 -79 -31 -63 -46 -85 -52 -74 -5 8 -12 56
-17 108 l-8 94 -60 33 c-33 18 -64 42 -68 52 -12 26 -170 102 -212 102 -40 0
-51 12 -30 33 8 9 15 20 15 26 0 15 5 14 50 -9 35 -18 59 -20 213 -20 l174 0
64 48 c69 51 109 78 149 99 15 8 19 13 9 13 -8 0 -54 -20 -102 -44 l-87 -45
-48 47 c-26 27 -80 63 -122 84 -41 20 -84 45 -95 55 -40 35 -115 134 -115 152
0 26 -50 68 -92 75 -27 5 -42 15 -52 34 -18 35 -62 75 -106 97 -19 10 -50 31
-68 46 -18 16 -44 29 -58 29 -14 0 -34 10 -44 23 -76 90 -81 95 -119 101 -32
5 -45 15 -75 56 -39 54 -115 100 -163 100 -15 -1 -51 -9 -80 -19z m543 -860
c45 -11 108 -33 140 -48 75 -36 59 -39 -120 -24 -103 9 -164 21 -286 56 l-155
45 170 -5 c121 -3 193 -10 251 -24z m124 -1796 l0 -115 -35 0 -35 0 0 115 0
115 35 0 35 0 0 -115z m3040 -1645 l0 -260 -30 0 -30 0 0 260 0 260 30 0 30 0
0 -260z m-374 -2432 c-22 -134 -36 -259 -36 -318 0 -39 -4 -78 -9 -88 -5 -9
-12 -26 -16 -37 -6 -20 -7 -20 -20 -1 -8 10 -16 23 -18 29 -2 6 -19 10 -37 9
-29 -1 -45 -12 -96 -64 l-61 -63 -6 -105 c-4 -58 -12 -150 -18 -205 -6 -55
-14 -314 -18 -575 l-6 -475 -21 46 c-52 112 -61 245 -39 559 25 351 24 525 -4
620 -34 116 -35 112 36 135 50 16 75 32 122 79 59 58 60 60 87 170 49 200 62
234 106 277 49 47 61 49 54 7z m-3625 -2193 c0 -8 -527 -79 -626 -85 -18 -1
-17 -2 6 -15 14 -7 34 -30 44 -49 11 -20 23 -36 28 -36 4 0 31 16 59 35 48 32
54 33 73 19 24 -17 191 -98 434 -209 l173 -80 -50 -3 c-90 -5 -280 57 -393
129 -35 23 -90 66 -121 96 l-57 56 -51 -33 -51 -33 57 -58 c43 -44 66 -59 96
-64 30 -5 44 -16 67 -48 39 -56 60 -73 101 -82 54 -12 190 -78 242 -118 26
-20 65 -45 88 -57 54 -27 42 -45 -13 -20 -34 16 -116 26 -457 55 -228 19 -435
37 -459 41 -50 7 -49 -10 2 -21 54 -12 86 -34 113 -78 15 -23 45 -61 67 -84
53 -55 40 -69 -16 -17 -27 26 -61 46 -97 57 -48 14 -59 23 -84 64 -16 27 -38
58 -49 70 -11 13 -17 26 -13 30 5 6 343 -20 711 -54 l60 -5 -45 30 c-25 16
-58 43 -74 61 l-30 31 -372 0 -372 0 -29 24 c-25 21 -48 26 -228 44 -197 20
-201 20 -231 1 -17 -10 -36 -19 -43 -19 -22 0 -10 17 29 39 25 14 40 29 40 42
0 17 7 19 60 19 52 0 60 2 60 19 0 28 19 31 101 15 62 -11 78 -19 102 -46 44
-53 39 -56 -52 -34 -99 24 -141 28 -141 12 0 -17 41 -25 154 -31 43 -2 81 -7
84 -10 3 -3 15 -5 27 -5 12 0 34 -9 48 -20 24 -19 40 -20 377 -20 328 0 408 7
299 25 -31 5 -45 15 -64 43 -33 52 -145 159 -175 167 -63 17 -83 31 -116 82
-19 29 -34 55 -34 57 0 1 21 4 48 5 26 1 187 19 357 41 171 21 316 37 323 36
7 0 13 -5 13 -11z m3328 -1047 l0 -283 -21 45 c-60 136 -63 339 -6 473 11 26
22 47 24 47 2 0 4 -127 3 -282z m-329 -538 l0 -680 -30 0 -30 0 0 168 c0 162
-9 321 -30 565 -6 78 -6 156 0 235 6 64 13 160 16 212 9 174 11 180 45 180
l29 0 0 -680z m632 553 c-23 -43 -34 -244 -34 -593 0 -524 28 -995 66 -1140 8
-30 13 -56 12 -58 -2 -1 -24 20 -49 47 -65 70 -70 96 -72 376 -1 132 -8 299
-14 370 -14 157 -29 754 -21 880 5 87 6 90 30 94 14 1 36 11 50 22 32 23 43
24 32 2z m-302 -1385 l0 -653 -25 30 c-13 17 -32 50 -42 74 -15 40 -16 62 -5
265 7 132 9 318 5 461 -6 257 0 332 38 424 12 28 23 51 25 51 2 0 4 -294 4
-652z m-626 522 c28 -53 39 -88 46 -150 5 -44 18 -101 30 -127 11 -25 19 -48
16 -50 -2 -2 -25 4 -51 14 l-49 18 -13 80 c-17 103 -41 173 -70 206 -38 41
-25 79 28 79 23 0 32 -10 63 -70z m331 -1677 c43 -115 92 -251 111 -303 49
-139 130 -336 159 -386 37 -64 123 -148 180 -177 52 -26 126 -49 133 -42 2 2
-17 33 -44 69 -38 53 -55 67 -82 72 -35 7 -43 19 -56 84 l-6 35 52 -51 c30
-29 70 -57 92 -64 22 -7 53 -21 70 -30 17 -10 48 -23 69 -30 38 -12 39 -13 32
-49 -9 -47 -10 -48 -46 -56 -24 -5 -35 -17 -50 -49 -10 -22 -19 -52 -19 -65 0
-23 0 -23 -87 -16 -126 9 -457 52 -598 75 -163 28 -275 60 -506 146 -112 42
-235 81 -287 91 -51 9 -92 21 -92 26 0 5 14 38 31 73 39 82 119 168 256 274
288 223 400 328 472 439 46 72 110 141 130 141 5 0 44 -93 86 -207z m-1660
-573 l0 -115 -32 -3 -33 -3 0 114 c0 62 3 117 7 121 4 4 19 6 33 4 l25 -3 0
-115z m-545 -455 l0 -325 -30 0 -30 0 0 325 0 325 30 0 30 0 0 -325z m-124
-110 c5 -90 11 -128 25 -153 11 -18 19 -37 19 -43 0 -19 -20 -8 -34 19 -8 16
-56 76 -106 133 -101 115 -157 214 -166 294 l-6 51 58 18 c33 10 84 31 114 46
l55 28 17 -137 c9 -75 20 -190 24 -256z m-3366 95 c-22 -68 -40 -133 -40 -145
0 -13 37 -83 82 -156 177 -291 220 -388 237 -542 19 -165 -19 -358 -103 -525
-123 -245 -344 -446 -529 -481 l-47 -8 -5 36 c-33 203 -62 232 -247 256 l-46
6 40 152 c69 261 137 429 271 668 97 175 144 285 206 492 28 92 63 193 78 224
26 54 134 175 140 156 2 -5 -15 -65 -37 -133z m6538 -79 l3 -71 -55 0 -56 0 0
101 0 101 52 -30 52 -30 4 -71z m-215 -43 c60 -26 131 -104 154 -168 11 -31
27 -54 45 -65 34 -20 43 -37 53 -94 l7 -43 -32 18 c-42 25 -70 61 -70 91 0 17
-25 47 -87 106 -48 45 -112 106 -143 135 l-55 54 40 -7 c22 -4 62 -16 88 -27z"/>
<path d="M18085 15785 c-9 -51 -52 -252 -61 -284 -7 -22 -5 -23 22 -17 16 4
29 8 30 9 5 7 44 138 49 165 9 42 -3 125 -20 149 -12 16 -14 14 -20 -22z"/>
<path d="M36575 15733 c-10 -27 -33 -75 -53 -108 -102 -177 -248 -271 -487
-314 -38 -7 -78 -23 -108 -44 -43 -29 -68 -57 -191 -213 -84 -106 -172 -141
-311 -122 -77 10 -258 77 -300 109 -29 23 -64 88 -89 165 -9 28 -28 62 -43 75
l-26 24 7 -73 c13 -129 30 -170 100 -237 35 -33 66 -69 70 -80 4 -15 16 -21
42 -22 39 -2 118 -50 168 -102 l27 -29 47 47 c35 34 92 68 225 134 111 56 183
98 194 113 102 146 143 173 345 229 196 53 269 98 315 194 l29 59 77 -70 c42
-38 81 -67 86 -64 4 3 -2 27 -15 53 -28 55 -29 82 -8 168 9 36 13 76 10 90 -6
24 -58 65 -82 65 -6 0 -19 -21 -29 -47z"/>
<path d="M34142 15688 c-18 -11 -63 -28 -99 -37 l-66 -17 94 -52 94 -53 22 26
c12 14 31 25 43 25 26 0 25 6 -6 42 -14 17 -28 44 -31 59 -6 34 -8 34 -51 7z"/>
<path d="M34350 15483 c-1 -27 -7 -79 -14 -118 -8 -38 -13 -71 -12 -72 1 -1
19 20 39 47 43 57 90 91 173 125 l57 23 -69 7 c-38 4 -86 14 -108 21 -61 22
-66 20 -66 -33z"/>
<path d="M34072 15509 c-63 -12 -143 -51 -190 -94 -69 -62 -129 -209 -120
-297 l3 -32 44 60 c80 108 154 186 227 241 70 52 108 105 88 122 -5 4 -28 4
-52 0z"/>
<path d="M34735 15340 c-60 -71 -110 -132 -110 -136 0 -4 28 -15 62 -25 80
-22 83 -25 83 -60 0 -42 29 -165 52 -218 22 -52 62 -106 136 -183 l55 -56 -7
-54 c-4 -29 -18 -96 -31 -148 -28 -109 -45 -240 -44 -320 1 -51 2 -53 9 -20 5
19 20 96 35 170 14 74 44 209 65 299 22 90 40 165 40 168 0 2 -15 1 -34 -3
-19 -3 -49 -3 -67 1 -46 10 -118 81 -148 145 -23 49 -25 67 -25 175 0 100 4
135 26 210 35 121 45 185 27 185 -8 0 -63 -59 -124 -130z"/>
<path d="M830 15295 c0 -22 59 -33 245 -46 189 -13 536 -7 630 11 70 14 67 12
59 34 -6 14 -49 16 -470 16 -400 0 -464 -2 -464 -15z"/>
<path d="M17459 15273 c-9 -2 -36 -27 -59 -55 -47 -54 -106 -87 -157 -88 -23
0 -33 -5 -33 -15 0 -12 20 -15 118 -15 l117 0 -80 -33 c-76 -32 -149 -74 -224
-131 -19 -14 -33 -26 -30 -26 6 0 102 38 163 64 l38 17 61 -58 61 -58 8 45
c10 58 27 100 42 100 6 0 51 -9 99 -19 l89 -18 -7 46 -6 47 51 -2 c37 -1 57
-7 74 -23 22 -21 27 -21 50 -9 27 14 26 14 -69 58 -116 52 -184 96 -195 124
-8 22 -83 55 -111 49z"/>
<path d="M35735 15229 c-27 -22 -84 -56 -125 -77 -72 -36 -77 -37 -180 -36
-90 0 -115 4 -174 27 -38 15 -70 26 -72 24 -5 -5 118 -92 149 -104 16 -7 46
-13 66 -13 43 0 153 35 228 73 51 26 173 131 163 140 -3 3 -27 -13 -55 -34z"/>
<path d="M1750 15245 c-113 -36 -618 -38 -861 -4 -103 14 -133 5 -155 -46 -23
-55 -152 -468 -180 -574 -35 -135 -38 -184 -21 -281 20 -104 36 -260 40 -360
l2 -75 235 -6 c663 -18 1147 -22 1250 -10 58 7 107 15 109 17 3 2 8 53 12 112
4 59 13 145 19 191 8 53 11 136 7 230 -7 173 -28 274 -117 549 -33 103 -64
206 -70 230 l-11 42 -107 -1 c-62 0 -126 -6 -152 -14z"/>
<path d="M17477 14968 c-3 -13 -9 -45 -13 -73 -3 -27 -9 -54 -11 -59 -3 -4
-36 22 -74 60 l-68 67 -58 -25 c-32 -14 -75 -31 -96 -38 -43 -14 -67 -53 -67
-112 l-1 -33 -28 31 c-16 17 -30 37 -32 43 -3 9 -12 8 -34 -3 -17 -9 -45 -16
-62 -16 -52 0 -43 -31 22 -73 30 -19 55 -31 57 -26 2 5 18 5 38 -1 19 -5 47
-10 63 -10 15 0 30 -6 33 -13 4 -11 -71 -466 -78 -472 -2 -2 -41 -22 -88 -45
-89 -45 -200 -116 -200 -128 0 -4 7 -16 15 -26 8 -11 15 -28 15 -38 0 -15 8
-18 45 -18 43 0 44 1 51 35 7 38 38 85 56 85 6 0 20 -7 30 -16 29 -27 141 -23
203 6 34 16 44 24 33 27 -11 3 -17 13 -17 26 1 12 -4 114 -11 226 -9 157 -9
218 0 266 l12 63 44 7 c44 6 44 6 44 48 0 52 15 80 30 57 5 -8 10 -29 10 -46
0 -68 33 -201 63 -257 35 -66 128 -154 149 -141 7 4 46 37 87 73 41 35 76 60
78 54 2 -6 -10 -53 -27 -106 -22 -70 -28 -101 -21 -119 10 -26 124 -170 165
-207 33 -31 33 -53 -3 -137 -90 -213 -78 -330 46 -452 l58 -56 3 162 c1 89 7
162 12 162 5 0 25 -16 46 -35 39 -37 53 -40 35 -7 -15 28 -14 93 4 185 21 112
20 244 -4 311 -24 68 -76 144 -105 156 -40 15 -103 99 -125 167 -12 35 -30
121 -41 191 -21 132 -31 173 -56 232 -14 34 -17 35 -107 53 -115 22 -114 22
-120 -5z"/>
<path d="M33706 14870 c-4 -25 -10 -234 -15 -465 l-8 -420 -31 -94 c-47 -135
-140 -287 -279 -450 -85 -100 -138 -188 -218 -361 -41 -89 -114 -222 -167
-306 -52 -82 -113 -183 -136 -225 -39 -71 -96 -208 -90 -214 5 -5 253 266 266
292 8 14 18 55 24 91 33 213 190 498 322 586 53 36 66 40 145 45 l86 7 -53 12
c-29 7 -62 12 -72 12 -11 0 -20 5 -20 10 0 20 83 175 133 249 61 91 110 198
125 271 6 30 13 138 17 240 3 102 10 255 16 341 11 165 2 309 -25 384 l-14 40
-6 -45z"/>
<path d="M33540 14647 c0 -43 -46 -247 -100 -447 -58 -213 -85 -344 -94 -450
l-7 -75 26 30 c34 38 113 198 119 239 3 17 9 90 15 161 8 90 20 157 38 215 25
77 27 97 25 210 -2 69 -7 129 -12 134 -7 7 -10 0 -10 -17z"/>
<path d="M49224 14599 c8 -81 29 -187 74 -379 17 -69 33 -145 37 -170 3 -25 8
-57 11 -73 l6 -27 626 2 627 3 7 75 c4 41 17 116 27 165 45 202 84 432 78 450
-7 17 -18 18 -155 12 -624 -26 -846 -29 -997 -12 -82 9 -195 19 -249 22 l-99
6 7 -74z"/>
<path d="M34063 14490 c38 -135 60 -286 60 -410 1 -151 -14 -226 -63 -317 -15
-29 -24 -53 -20 -53 14 0 107 108 135 157 82 147 112 337 68 434 -20 45 -110
152 -162 194 l-24 19 6 -24z"/>
<path d="M19035 13953 c12 -87 36 -157 96 -274 32 -63 70 -145 84 -182 l25
-67 -68 -43 c-37 -24 -103 -65 -147 -92 -90 -56 -85 -63 33 -46 100 14 142 26
183 54 109 73 106 181 -10 431 -53 113 -136 252 -157 260 -39 15 -45 8 -39
-41z"/>
<path d="M49227 13834 c-4 -4 -7 -128 -7 -276 l0 -268 733 0 733 0 11 93 c6
50 23 158 38 239 28 151 28 190 -2 204 -21 11 -1496 18 -1506 8z"/>
<path d="M624 13738 c4 -35 25 -153 48 -263 22 -110 46 -236 52 -280 l11 -80
535 0 c473 0 544 2 614 18 43 9 97 17 121 17 l43 0 12 88 c7 48 16 106 21 129
16 77 38 237 45 336 l7 97 -758 0 -758 0 7 -62z"/>
<path d="M17960 13558 c0 -90 4 -129 13 -136 19 -16 185 -69 234 -75 42 -5 43
-5 37 21 -3 17 -41 61 -95 112 -60 57 -89 92 -89 107 0 13 -9 27 -22 34 -13 6
-35 23 -50 37 l-28 26 0 -126z"/>
<path d="M33890 13608 c-14 -5 -62 -8 -108 -5 -81 5 -83 4 -66 -14 16 -18 290
-191 344 -218 14 -7 -16 28 -67 78 l-92 91 15 35 c21 51 20 52 -26 33z"/>
<path d="M33858 13185 c21 -33 59 -107 85 -165 116 -268 146 -330 191 -406 90
-151 100 -155 52 -19 -124 344 -201 490 -321 605 l-46 45 39 -60z"/>
<path d="M49355 13170 c-12 -19 7 -184 27 -235 18 -49 19 -108 13 -3030 -6
-2520 -9 -3029 -22 -3300 -14 -270 -17 -717 -20 -2843 -4 -2368 -5 -2523 -21
-2518 -92 28 -226 36 -277 16 -79 -30 -111 -110 -102 -255 10 -154 79 -255
192 -284 61 -15 1715 -17 1791 -1 32 6 69 14 82 16 19 4 22 11 22 47 0 48 22
133 43 160 12 18 15 18 64 -1 29 -11 64 -29 79 -41 33 -26 46 -18 70 45 31 81
1 188 -84 299 -78 103 -132 121 -305 104 -67 -7 -133 -13 -147 -13 l-25 -1 -2
860 c-2 1046 -20 3411 -34 4455 -7 592 -13 797 -26 905 -13 116 -17 313 -23
1150 -6 914 -9 1023 -26 1150 -18 132 -19 217 -19 1465 0 1172 2 1346 17 1510
10 102 19 221 20 265 l3 80 -642 3 c-440 1 -644 -1 -648 -8z"/>
<path d="M955 13010 c-184 -8 -240 -13 -332 -32 l-53 -11 0 -111 c1 -112 11
-217 31 -313 l10 -53 740 0 739 0 0 168 c0 123 5 190 19 257 10 50 18 91 17
91 -6 6 -1034 10 -1171 4z"/>
<path d="M18330 12901 c-118 -39 -168 -63 -249 -116 -108 -71 -176 -159 -211
-274 -28 -88 -26 -111 5 -111 20 0 30 10 51 53 77 152 174 258 303 333 136 79
201 123 201 134 0 14 -4 13 -100 -19z"/>
<path d="M18595 12872 c-99 -33 -213 -108 -366 -239 -161 -138 -208 -176 -257
-208 -24 -16 -39 -31 -35 -35 4 -4 27 -12 50 -19 l43 -12 -21 -42 c-29 -56
-71 -118 -136 -200 -48 -60 -54 -72 -51 -108 l3 -40 95 138 c53 76 126 183
162 239 37 55 88 124 115 154 50 55 251 216 410 326 51 36 93 67 93 70 0 9
-28 3 -105 -24z"/>
<path d="M18899 12841 c-66 -22 -130 -76 -258 -219 -82 -92 -160 -151 -266
-202 -121 -58 -212 -169 -311 -374 -86 -181 -124 -310 -204 -701 -63 -309
-116 -533 -129 -549 -6 -7 -8 -16 -4 -19 11 -12 -19 -38 -38 -32 -19 6 -17 16
-49 -170 -27 -152 -47 -239 -66 -284 -14 -33 -14 -34 4 -18 25 23 29 21 25
-10 -59 -485 -156 -1025 -212 -1178 -11 -30 -294 -311 -299 -297 -1 4 74 268
167 587 93 319 168 581 166 583 -1 1 -17 -35 -35 -80 -18 -46 -77 -175 -130
-288 -54 -113 -105 -234 -114 -270 -9 -36 -21 -124 -26 -195 -13 -161 -25
-233 -51 -292 -31 -73 -102 -166 -171 -224 -79 -65 -256 -182 -314 -206 -24
-10 -47 -26 -50 -35 -6 -19 -24 -25 -24 -8 0 6 7 40 16 76 9 36 14 67 11 71
-3 3 -22 2 -41 -1 -28 -5 -54 -28 -137 -119 -116 -127 -111 -123 -233 -190
-120 -65 -180 -110 -199 -149 -9 -18 -14 -34 -12 -36 1 -2 47 11 101 29 150
50 658 310 1028 528 65 39 90 61 154 141 98 124 141 169 232 243 252 206 452
408 490 495 51 115 74 244 95 527 24 331 42 473 95 735 59 293 67 358 75 566
14 368 37 464 166 664 71 111 311 311 467 389 132 66 281 78 401 32 30 -11 56
-19 58 -17 10 10 -91 92 -145 118 -54 26 -75 30 -142 30 -43 0 -104 -8 -135
-17 -152 -44 -353 -175 -452 -294 -68 -82 -176 -243 -198 -296 -47 -111 -48
-118 -50 -425 -3 -409 -17 -491 -185 -1063 -103 -351 -106 -369 -120 -588 -17
-275 -52 -373 -179 -494 -41 -38 -105 -101 -142 -140 l-67 -70 14 70 c7 39
106 547 219 1130 205 1063 249 1260 332 1490 80 222 136 306 288 441 111 98
243 229 410 406 98 104 114 118 150 123 154 21 261 52 243 70 -10 10 -191 15
-219 6z"/>
<path d="M17075 12639 c-22 -11 -49 -28 -60 -39 -19 -20 -19 -20 9 -20 26 0
28 -2 22 -27 -21 -89 -40 -136 -76 -191 -73 -114 -135 -260 -149 -352 -5 -40
-9 -45 -34 -48 -15 -2 -27 -8 -27 -14 0 -6 28 -9 78 -7 63 3 86 9 126 33 48
28 49 29 26 38 -23 8 -20 12 66 99 49 50 117 110 152 134 36 24 59 46 53 50
-6 3 -54 3 -106 -1 -52 -4 -95 -5 -95 -2 0 3 18 83 40 178 22 95 40 177 40
182 0 13 -22 9 -65 -13z"/>
<path d="M17772 12542 c-81 -107 -97 -121 -154 -149 -35 -17 -112 -46 -173
-63 -93 -27 -125 -41 -209 -98 -98 -67 -228 -193 -206 -200 6 -2 82 38 168 90
86 52 177 106 202 120 44 25 216 98 232 98 4 0 -8 -35 -28 -77 -19 -43 -58
-132 -87 -198 -76 -179 -152 -321 -267 -505 -61 -97 -152 -264 -221 -405 -120
-246 -147 -286 -232 -339 -67 -41 -367 -130 -374 -110 -2 5 -21 45 -42 89
l-39 80 -56 -119 c-69 -146 -93 -227 -107 -371 -5 -60 -23 -202 -40 -313 -16
-112 -29 -233 -29 -268 0 -57 2 -64 20 -64 10 0 24 9 30 19 5 11 23 149 39
308 17 158 35 313 41 343 15 72 85 217 107 224 31 8 504 59 508 54 3 -2 -28
-95 -69 -205 -40 -110 -83 -238 -94 -284 -27 -105 -68 -332 -85 -465 -12 -96
-16 -105 -67 -185 -30 -46 -94 -154 -142 -239 -49 -85 -117 -191 -152 -236
-73 -93 -218 -224 -291 -263 -45 -23 -60 -26 -147 -25 -54 0 -98 -2 -98 -5 0
-3 9 -20 20 -38 33 -55 110 -57 235 -8 116 45 158 78 254 198 198 249 333 508
444 852 50 156 86 293 176 680 117 503 167 639 303 825 34 47 99 137 145 200
95 130 185 305 292 567 75 184 107 251 208 436 60 111 87 167 79 167 -2 0 -44
-53 -94 -118z"/>
<path d="M16755 12420 c-115 -77 -211 -144 -213 -149 -2 -5 18 -38 43 -72 32
-43 45 -69 41 -83 -4 -16 8 -35 46 -73 29 -29 57 -53 63 -53 28 0 64 49 85
115 32 100 71 183 120 255 34 51 87 177 77 186 -1 1 -13 5 -27 8 -20 5 -64
-20 -235 -134z"/>
<path d="M34590 12539 c0 -3 36 -104 81 -225 44 -120 104 -289 134 -374 208
-607 363 -988 427 -1047 13 -12 89 -49 168 -82 80 -32 171 -71 202 -85 89 -40
168 -56 269 -55 140 0 237 20 267 54 12 15 21 29 19 31 -2 2 -38 -1 -80 -8
-42 -6 -79 -9 -83 -6 -3 3 11 38 30 77 62 123 81 246 56 361 -12 52 -40 120
-50 120 -4 0 -7 -57 -6 -127 1 -127 1 -129 -48 -277 l-49 -149 -91 7 c-180 14
-332 59 -441 132 -175 115 -268 254 -388 579 -25 66 -84 220 -131 343 -93 242
-146 406 -146 456 0 22 9 41 28 60 l29 27 53 -50 c35 -33 51 -55 47 -65 -7
-17 54 -74 165 -153 37 -26 255 -190 485 -363 229 -173 421 -316 425 -318 17
-7 7 18 -19 48 -16 18 -44 62 -63 98 -32 60 -43 71 -115 115 -44 26 -119 68
-166 92 -88 45 -170 105 -339 250 -52 45 -156 123 -230 173 -125 84 -278 209
-392 320 -27 26 -48 44 -48 41z"/>
<path d="M1365 12410 c-596 -34 -645 -40 -666 -72 -7 -11 11 -91 40 -180 31
-95 40 -291 51 -1092 23 -1754 2 -4577 -40 -5284 -8 -123 -7 -168 2 -185 7
-13 14 -82 16 -167 4 -135 3 -150 -19 -199 l-23 -54 19 -66 c17 -58 19 -91 16
-266 -2 -117 -9 -217 -16 -240 -8 -27 -9 -48 -2 -62 6 -13 6 -69 0 -148 -8
-98 -7 -141 3 -184 23 -96 14 -341 -17 -486 -9 -43 -7 -66 15 -165 14 -63 26
-120 26 -126 0 -6 -11 -28 -25 -48 l-24 -36 49 -37 c28 -21 50 -40 50 -44 0
-4 -15 -16 -34 -27 -29 -17 -35 -27 -41 -71 -4 -28 -4 -68 0 -90 3 -21 2 -55
-3 -74 -9 -30 -7 -36 10 -44 19 -8 20 -19 18 -313 -1 -307 -14 -656 -26 -697
-4 -15 2 -35 16 -59 l23 -36 -22 -44 c-20 -42 -21 -59 -21 -297 0 -138 -3
-310 -7 -380 l-6 -128 -101 3 -101 3 -17 65 -18 65 29 42 c24 34 27 42 14 47
-38 15 -62 5 -111 -49 -43 -47 -52 -63 -57 -108 -4 -29 -5 -66 -3 -82 l3 -30
145 -6 c80 -4 169 -7 199 -8 l53 -1 -4 -72 c-4 -83 -21 -114 -79 -147 -35 -20
-38 -20 -83 -5 -36 13 -56 29 -91 74 -58 75 -129 137 -133 116 -3 -16 54 -244
67 -264 5 -9 36 -5 117 13 149 34 179 33 199 -4 l15 -30 732 -4 c403 -3 749
-8 768 -12 34 -6 36 -5 73 58 80 136 95 242 59 417 l-18 85 -74 17 c-102 22
-152 22 -192 -1 -38 -23 -148 -65 -153 -59 -2 2 7 35 21 73 34 92 61 261 75
458 14 199 14 891 0 1277 -6 159 -11 885 -11 1645 0 1455 -6 1878 -45 3355
-56 2135 -68 2927 -55 3505 10 418 20 536 66 768 30 152 27 183 -22 203 -44
18 -224 17 -629 -6z"/>
<path d="M34767 12303 c-26 -25 11 -167 108 -418 37 -93 98 -255 137 -360 75
-202 134 -331 192 -418 70 -105 204 -213 326 -263 119 -48 375 -83 384 -51 3
6 21 63 41 125 44 135 50 186 40 324 l-7 105 -549 412 c-302 227 -558 424
-569 438 -11 14 -17 30 -14 35 7 11 -54 78 -71 78 -7 0 -15 -3 -18 -7z"/>
<path d="M17510 12266 c-86 -37 -116 -54 -330 -184 -150 -92 -218 -138 -231
-155 -3 -5 -62 -8 -130 -9 -129 0 -216 15 -278 47 l-34 17 6 -31 c6 -28 53
-80 94 -104 7 -5 34 -36 59 -70 l45 -62 -93 -3 c-51 -2 -103 0 -114 2 -34 9
-106 128 -111 184 -6 60 16 155 60 260 19 45 34 82 32 82 -2 0 -270 -176 -597
-392 -581 -383 -598 -394 -838 -510 -618 -300 -652 -321 -879 -542 -200 -195
-202 -196 -451 -207 -209 -9 -263 -15 -395 -41 -212 -41 -440 -107 -725 -210
-184 -67 -1355 -531 -1690 -671 -279 -116 -287 -117 -893 -117 -516 0 -544 -3
-655 -59 -86 -44 -392 -276 -440 -334 -31 -37 56 -134 143 -158 41 -12 33 -16
130 72 28 25 73 54 100 64 61 22 80 38 107 86 16 30 30 40 64 48 75 19 78 16
44 -34 -24 -35 -38 -46 -68 -51 -47 -8 -53 -13 -117 -99 -100 -133 -179 -179
-339 -198 -16 -2 -23 11 -41 83 -22 86 -53 152 -104 225 -15 22 -108 209 -205
415 -234 494 -269 560 -531 995 -122 204 -265 448 -316 544 -190 351 -203 357
-1095 485 -170 25 -390 59 -489 76 -99 17 -224 34 -277 37 -114 7 -112 10 -73
-94 60 -159 251 -486 590 -1008 656 -1012 781 -1212 936 -1505 110 -210 150
-274 185 -296 17 -12 78 -23 187 -36 96 -11 284 -45 462 -84 500 -108 539
-114 778 -114 l207 0 -6 -27 c-15 -62 -24 -76 -38 -64 -11 9 -219 28 -343 31
-7 0 -13 9 -13 20 0 18 -7 20 -85 20 -60 0 -102 6 -143 20 -35 13 -106 24
-187 31 -71 5 -236 23 -365 39 -588 73 -735 80 -1776 80 l-791 0 -6 -105 c-8
-121 -22 -156 -69 -176 -53 -23 -1679 -19 -1916 4 -95 9 -184 17 -197 17 l-25
0 0 -196 0 -196 1328 6 c730 3 1498 6 1707 6 488 -1 5882 -37 6623 -45 l562
-6 0 365 0 366 -892 0 -893 0 -770 40 c-423 22 -786 40 -805 40 l-35 0 25 20
c33 26 152 64 282 89 127 24 247 67 327 115 69 42 158 134 197 205 l28 49 91
6 c49 3 171 8 270 11 523 16 1595 101 2155 171 497 61 780 139 1685 464 187
67 365 135 395 151 68 36 95 74 148 206 40 96 42 107 42 202 0 92 9 124 24 86
3 -8 15 -15 26 -15 19 0 20 -4 14 -67 -4 -38 -13 -75 -20 -84 -16 -18 -19
-316 -7 -687 l6 -211 36 20 c20 11 92 44 161 74 l125 54 8 78 c4 43 19 159 32
258 14 99 32 242 40 318 9 86 24 167 40 213 24 71 140 314 150 314 3 0 25 -43
49 -95 25 -52 50 -95 56 -95 26 0 180 44 253 72 42 16 100 48 128 70 49 38 59
55 172 287 68 139 164 316 220 406 126 201 189 319 270 511 36 83 73 166 82
184 9 17 15 33 13 35 -2 1 -37 -12 -78 -29z m-7190 -3081 l0 -55 -215 0 c-310
0 -430 -27 -625 -140 -80 -46 -162 -70 -235 -70 -28 0 279 201 390 255 l90 44
225 9 c124 5 258 10 298 10 l72 2 0 -55z m-542 -437 l-3 -33 -335 -25 c-206
-16 -345 -23 -361 -17 -17 5 -36 26 -53 58 l-27 49 391 0 391 0 -3 -32z m752
-3 l0 -35 -135 0 -135 0 0 35 0 35 135 0 135 0 0 -35z m-176 -149 c39 -16 72
-56 81 -97 5 -23 -2 -45 -29 -99 -20 -39 -34 -70 -31 -70 3 0 29 12 57 26 52
26 139 56 146 50 8 -8 -44 -172 -59 -187 -39 -39 -148 -53 -464 -57 -179 -2
-296 0 -290 5 28 26 116 84 163 107 31 16 85 31 132 38 l80 11 0 35 c0 97 59
209 124 238 40 17 49 17 90 0z"/>
<path d="M10258 8564 c-45 -24 -77 -91 -90 -187 l-11 -84 -80 -6 c-84 -6 -184
-45 -222 -87 l-19 -21 240 5 c231 5 364 19 413 45 23 13 65 141 46 141 -3 0
-47 -18 -99 -40 -51 -22 -99 -40 -106 -40 -6 0 9 38 35 86 40 72 46 92 41 123
-11 69 -83 101 -148 65z"/>
<path d="M35740 12291 c0 -6 18 -91 39 -189 21 -97 49 -229 60 -292 39 -205
59 -264 109 -322 17 -18 39 -54 48 -79 10 -24 33 -63 51 -87 46 -60 66 -138
66 -252 0 -101 -15 -163 -60 -254 l-25 -49 49 8 c57 8 123 35 142 58 15 19 41
23 41 6 0 -5 -19 -33 -42 -61 -97 -115 -84 -106 -193 -124 -151 -24 -267 -15
-380 29 -237 93 -410 168 -431 188 -44 41 -142 249 -228 486 l-52 143 -53 -54
c-46 -47 -52 -56 -42 -74 17 -31 13 -37 -7 -12 l-18 22 -29 -33 c-15 -19 -44
-68 -64 -109 -48 -100 -50 -181 -8 -252 61 -102 127 -148 413 -289 315 -155
334 -171 433 -349 35 -63 94 -164 131 -225 37 -60 107 -176 154 -257 48 -81
99 -157 113 -168 18 -14 41 -20 73 -20 l48 0 21 84 c19 79 20 100 14 390 -5
270 -4 306 9 306 21 0 102 -88 173 -189 49 -68 117 -134 370 -360 170 -152
340 -304 378 -338 100 -92 185 -113 457 -113 406 0 895 75 2095 319 541 110
916 171 1050 171 64 -1 149 -37 285 -122 153 -95 234 -140 335 -186 89 -40
269 -104 333 -117 29 -6 32 -4 32 17 0 13 -9 41 -19 64 -39 85 -116 148 -249
203 -69 29 -192 98 -192 109 0 10 196 -8 255 -24 168 -44 292 -148 405 -338
36 -60 77 -136 91 -167 14 -32 34 -67 44 -79 23 -26 75 -40 148 -40 53 0 57 1
57 24 0 51 -53 207 -110 321 -124 249 -216 352 -395 439 -235 115 -453 158
-1113 221 -262 25 -262 25 -1420 25 l-1157 0 -110 -25 c-242 -56 -334 -74
-420 -80 l-90 -7 -75 114 c-351 533 -625 902 -889 1198 -101 113 -173 202
-321 400 -195 261 -330 421 -330 391z"/>
<path d="M16485 12166 c-47 -104 -65 -170 -65 -241 0 -55 4 -69 39 -122 21
-33 43 -63 48 -65 4 -3 42 -2 83 1 l75 7 -83 81 c-86 85 -102 114 -102 187 l0
38 39 -35 c23 -21 62 -43 92 -51 51 -16 109 -21 109 -11 0 3 -30 34 -66 70
-53 52 -65 69 -61 87 5 16 -4 38 -30 75 -20 29 -38 53 -40 53 -2 0 -19 -33
-38 -74z"/>
<path d="M17748 12131 c-11 -25 -67 -147 -123 -271 -123 -267 -151 -338 -215
-530 -100 -305 -166 -400 -346 -498 l-69 -37 5 -45 c10 -91 3 -278 -14 -385
-19 -120 -77 -368 -131 -566 -19 -69 -35 -130 -35 -134 0 -4 9 0 20 10 10 9
69 41 130 71 l110 53 0 -27 c1 -18 15 9 44 78 24 58 84 191 133 295 198 418
365 880 467 1295 39 161 69 322 64 348 -5 24 -73 -184 -163 -493 -110 -375
-171 -570 -230 -735 -112 -306 -185 -446 -300 -568 -40 -43 -103 -115 -139
-161 -36 -46 -66 -81 -66 -77 0 43 192 888 217 956 9 25 54 99 98 165 123 180
273 469 392 750 14 33 64 143 111 245 47 102 90 210 97 242 12 56 12 56 -13
61 -21 4 -27 -1 -44 -42z"/>
<path d="M4289 12100 c-59 -30 -129 -101 -129 -131 0 -31 31 -103 66 -154 36
-53 54 -124 54 -218 l0 -48 -72 -34 c-40 -18 -88 -36 -105 -40 -18 -3 -33 -13
-33 -20 0 -8 6 -12 13 -9 8 3 47 -5 88 -16 41 -12 117 -23 169 -26 79 -5 101
-2 130 13 30 15 34 22 31 48 -1 16 -18 47 -37 67 -33 37 -34 41 -34 121 0 79
2 86 41 152 23 39 49 93 59 120 l17 50 -31 44 c-22 31 -51 53 -98 77 -37 19
-69 34 -70 34 -2 -1 -28 -14 -59 -30z"/>
<path d="M34415 12050 c10 -95 32 -201 67 -317 30 -100 32 -103 82 -136 97
-65 162 -144 180 -220 l7 -28 24 30 c14 16 25 32 25 35 0 18 -80 129 -135 186
-105 110 -159 210 -210 390 -36 125 -48 142 -40 60z"/>
<path d="M45130 11686 c-36 -80 -108 -198 -257 -425 -123 -188 -238 -371 -458
-731 -75 -124 -154 -252 -175 -285 -21 -33 -178 -288 -350 -568 l-311 -507 6
-54 c5 -42 14 -61 36 -82 16 -15 29 -33 29 -40 0 -17 -111 -23 -605 -30 -597
-9 -863 8 -965 61 -17 9 -30 19 -30 24 0 10 99 37 190 51 36 6 192 14 348 17
l282 6 0 34 c0 32 -2 33 -37 33 -21 -1 -82 -7 -137 -14 -83 -11 -189 -10 -665
4 -311 10 -569 15 -573 13 -19 -10 -6 -44 22 -58 32 -17 37 -29 18 -42 -7 -4
-537 -10 -1178 -13 l-1165 -5 -2 -263 c-2 -192 -7 -280 -18 -328 -8 -36 -15
-69 -15 -75 0 -5 112 -9 280 -9 249 0 280 -2 280 -16 0 -13 5 -13 33 4 17 11
57 27 87 37 50 15 357 16 3655 22 3530 5 4535 0 4805 -27 52 -5 206 -12 341
-16 l247 -7 7 144 c4 79 8 207 9 284 2 216 -12 232 -199 246 -60 4 -1000 8
-2088 8 l-1977 1 71 143 c40 78 139 259 222 402 141 244 182 315 369 640 41
72 135 234 208 360 73 127 157 271 185 320 28 50 95 164 147 255 52 91 145
252 206 358 l111 192 -480 0 -480 0 -29 -64z m16 -1358 c-12 -65 -66 -155
-140 -234 -40 -43 -76 -77 -79 -74 -10 10 13 141 32 184 10 23 31 54 47 70 29
28 121 86 138 86 5 0 6 -15 2 -32z m-3350 -1248 c32 -11 65 -22 73 -25 20 -8
-25 -40 -74 -54 -52 -14 -155 -14 -155 0 0 14 38 70 58 87 21 16 29 15 98 -8z"/>
<path d="M4106 11412 c-18 -29 -36 -144 -36 -230 0 -98 0 -100 25 -104 14 -3
62 1 108 8 45 7 145 18 223 24 77 5 154 14 171 20 28 10 31 15 37 72 3 33 6
89 6 124 0 71 -5 77 -78 89 -33 5 -47 3 -61 -9 -10 -9 -43 -22 -74 -28 -60
-13 -158 -2 -261 28 -58 16 -54 16 -60 6z"/>
<path d="M33742 11144 c-33 -23 -56 -76 -96 -215 -19 -68 -60 -187 -92 -264
-75 -186 -99 -257 -135 -400 -32 -132 -34 -144 -19 -129 5 5 22 64 36 129 18
84 38 143 66 198 22 42 44 77 48 77 8 0 4 7 117 -240 106 -232 136 -312 161
-431 26 -119 55 -309 49 -315 -2 -2 -67 90 -143 205 -76 116 -140 209 -142
207 -3 -4 106 -197 220 -387 60 -100 92 -174 123 -277 6 -22 5 -23 -14 -12
-19 9 -34 4 -109 -41 -122 -74 -199 -132 -228 -170 -28 -39 -54 -118 -53 -163
0 -26 3 -21 18 26 50 155 165 264 292 276 55 5 134 -17 186 -52 l34 -24 -44
-25 c-98 -58 -172 -174 -197 -311 -15 -79 -9 -285 15 -576 24 -286 18 -775
-17 -1380 -7 -123 -10 -446 -9 -810 1 -433 -3 -710 -15 -975 -20 -444 -16
-929 8 -985 14 -33 15 -24 21 158 3 107 7 196 10 198 2 2 91 8 198 12 l194 7
-209 7 c-115 4 -210 9 -213 11 -4 4 53 1038 63 1146 l6 64 52 -99 c88 -168
204 -352 245 -388 31 -28 26 -17 -28 65 -81 124 -200 340 -232 424 -64 164
-74 239 -73 545 1 151 16 554 33 895 17 341 33 721 36 845 3 124 8 267 11 319
l6 93 92 -6 c50 -4 197 -18 326 -31 445 -46 682 -82 707 -108 6 -7 84 -120
174 -252 89 -132 188 -271 219 -310 31 -38 64 -82 72 -96 15 -23 73 -47 86
-35 2 3 -9 28 -25 57 -17 33 -77 102 -154 179 -161 161 -208 230 -254 377 -29
93 -57 114 -200 153 -103 29 -241 47 -520 70 -388 31 -538 53 -557 82 -15 23
-37 107 -44 166 -9 80 14 278 37 323 27 55 75 97 122 110 67 18 158 -8 398
-114 118 -52 245 -106 283 -122 76 -29 82 -29 236 -1 117 22 239 34 485 46
116 6 262 15 325 21 202 20 380 64 380 95 0 10 -6 11 -23 5 -79 -30 -329 -59
-787 -92 -383 -28 -580 -29 -674 -6 -81 20 -199 74 -328 150 -51 30 -111 64
-134 75 -35 18 -50 38 -105 134 -90 159 -116 228 -134 354 -33 230 -60 321
-187 628 -120 293 -140 349 -145 426 -4 60 -1 73 40 170 25 58 68 154 96 214
28 60 51 110 51 112 0 8 -17 3 -38 -12z"/>
<path d="M4608 11105 c-3 -3 -81 -12 -174 -20 -93 -8 -199 -20 -236 -26 -79
-13 -74 0 -82 -196 l-5 -123 238 0 238 0 7 90 c4 50 11 114 16 143 17 104 20
137 12 137 -5 0 -11 -2 -14 -5z"/>
<path d="M34665 11000 c13 -46 63 -125 120 -187 70 -77 165 -126 344 -178 69
-20 133 -41 142 -46 10 -5 21 -9 26 -9 4 1 -82 45 -193 99 -274 134 -351 189
-418 301 -17 27 -25 35 -21 20z"/>
<path d="M5203 10806 c-85 -21 -171 -64 -280 -139 l-103 -70 0 -53 c0 -46 24
-134 36 -134 3 0 21 7 41 15 40 17 79 47 193 150 108 98 160 119 285 119 138
-1 196 -24 284 -113 301 -302 214 -872 -174 -1140 -92 -64 -183 -106 -335
-157 -106 -36 -124 -39 -222 -38 l-108 0 0 -108 0 -108 43 6 c303 41 548 154
749 343 298 280 433 699 327 1014 -82 245 -313 412 -584 423 -64 2 -119 -1
-152 -10z"/>
<path d="M3976 10689 c-82 -13 -76 7 -76 -247 0 -126 3 -231 6 -235 3 -3 31 3
61 14 50 17 85 19 302 19 235 0 251 -2 362 -28 l116 -28 8 159 c3 87 12 181
19 208 12 45 12 51 -5 59 -9 6 -129 12 -266 15 -262 7 -361 17 -409 42 -50 26
-68 30 -118 22z"/>
<path d="M16565 10634 c-104 -12 -196 -23 -202 -23 -15 -1 -64 -95 -86 -166
-18 -58 -29 -140 -58 -425 -28 -287 -27 -283 -69 -297 -29 -9 -32 -12 -17 -18
14 -6 34 7 84 56 125 123 206 261 270 460 20 63 43 123 52 135 16 20 19 20 62
8 63 -19 74 -33 59 -81 -19 -58 -222 -452 -271 -524 -24 -35 -74 -100 -112
-144 -38 -44 -114 -146 -168 -226 -57 -85 -116 -162 -141 -182 -45 -37 -131
-86 -184 -104 -29 -10 -31 -14 -38 -78 -4 -37 -14 -97 -22 -132 -10 -42 -12
-69 -6 -75 6 -6 52 -8 104 -6 91 3 97 5 153 41 71 48 213 183 269 257 23 30
82 125 130 210 49 85 112 192 141 237 53 81 54 84 70 205 19 145 67 396 94
488 10 36 46 141 80 233 33 93 61 170 61 173 0 7 -61 2 -255 -22z"/>
<path d="M35350 10548 c79 -74 133 -155 243 -363 105 -200 170 -306 235 -387
30 -38 56 -68 58 -68 8 0 -27 61 -161 285 -72 121 -160 270 -194 330 -70 123
-95 153 -161 197 -35 23 -39 24 -20 6z"/>
<path d="M33516 10438 c-27 -56 -56 -157 -56 -194 0 -21 369 -589 377 -581 6
7 -37 220 -63 307 -24 78 -205 494 -223 513 -5 5 -20 -15 -35 -45z"/>
<path d="M16555 10339 c-3 -4 -23 -62 -44 -127 -42 -129 -92 -234 -154 -327
-45 -67 -199 -225 -219 -225 -7 0 -21 13 -30 29 l-16 30 -149 -67 c-206 -92
-196 -84 -151 -127 44 -41 59 -42 178 -15 47 11 91 20 98 20 8 0 1 -22 -20
-61 -36 -66 -151 -195 -217 -244 -36 -27 -69 -80 -57 -93 11 -10 138 59 181
99 26 24 87 104 137 178 50 75 125 177 168 226 102 120 121 149 235 362 102
192 157 314 146 325 -12 12 -81 26 -86 17z"/>
<path d="M17536 10193 c-15 -24 -92 -273 -210 -678 -102 -352 -186 -644 -186
-648 0 -5 49 38 109 94 128 120 129 121 185 396 51 248 146 873 132 873 -3 0
-17 -17 -30 -37z"/>
<path d="M4016 10194 c-18 -48 57 -71 264 -81 89 -4 130 -2 180 11 36 9 68 20
73 25 4 4 3 20 -4 34 l-12 27 -248 0 c-215 0 -248 -2 -253 -16z"/>
<path d="M33439 10156 c-15 -69 -2 -201 40 -416 44 -223 56 -255 94 -271 18
-7 94 -41 171 -76 76 -35 142 -63 146 -63 18 0 -35 124 -94 222 -149 246 -249
432 -292 539 -25 62 -47 115 -49 117 -2 2 -9 -22 -16 -52z"/>
<path d="M4685 10149 c-27 -10 -66 -18 -85 -19 -19 0 -64 -9 -100 -21 -97 -30
-203 -33 -355 -10 -71 10 -131 18 -132 17 -1 -1 11 -39 28 -84 18 -53 29 -103
29 -137 l0 -54 58 27 c47 22 75 27 159 30 116 5 167 -8 254 -63 l54 -34 -262
-1 -263 0 0 -45 0 -45 38 0 c20 0 150 7 287 15 138 8 258 15 268 15 17 0 17
-3 -5 -42 l-23 -42 -210 -1 c-115 -1 -243 -6 -282 -10 l-73 -8 0 -47 c0 -45 1
-48 32 -54 66 -13 82 -56 21 -56 -21 0 -43 -4 -49 -8 -7 -4 -15 -90 -23 -227
-6 -121 -14 -258 -17 -304 l-7 -84 94 5 c66 4 109 12 144 28 41 18 62 21 120
17 39 -3 94 -12 124 -21 49 -14 61 -14 118 -1 35 8 87 15 115 15 l51 0 -8 53
c-19 140 -25 280 -31 730 -4 268 -10 486 -13 486 -3 -1 -28 -10 -56 -20z"/>
<path d="M3903 9718 c3 -227 10 -447 17 -488 19 -132 29 -374 16 -386 -18 -18
-116 -53 -191 -69 -38 -8 -121 -15 -183 -15 -130 0 -122 6 -143 -116 -18 -103
-39 -98 344 -85 180 6 608 11 951 11 l626 0 -6 33 c-17 97 -46 148 -99 174
-11 6 -79 13 -152 17 -136 7 -179 16 -225 48 -35 24 -38 23 -38 -11 l0 -30
-107 -3 c-60 -2 -135 0 -168 4 -52 7 -64 13 -90 43 -28 32 -34 35 -86 35 -53
0 -56 -1 -71 -34 -16 -33 -17 -34 -115 -46 -109 -13 -142 -6 -166 32 -13 20
-11 75 9 423 13 220 23 402 24 406 0 10 425 27 490 20 49 -6 69 -5 79 5 8 8
12 16 9 20 -6 6 -348 -9 -505 -22 l-73 -6 0 113 c-1 126 -8 168 -47 270 l-27
69 -39 0 -40 0 6 -412z"/>
<path d="M17038 9460 c-30 -147 -83 -330 -129 -443 -47 -113 -17 -65 51 83 87
190 120 293 119 371 -3 136 -13 133 -41 -11z"/>
<path d="M15751 9349 c0 -133 3 -169 11 -151 6 12 15 22 19 22 19 0 177 155
211 208 21 31 38 59 38 63 0 3 -38 -3 -85 -13 -78 -17 -88 -17 -122 -3 -21 9
-45 23 -55 32 -17 15 -18 9 -17 -158z"/>
<path d="M33549 9316 c-97 -22 -147 -52 -188 -116 -49 -76 -120 -247 -132
-319 -5 -31 -45 -483 -89 -1006 -44 -522 -87 -997 -94 -1055 -8 -58 -30 -215
-50 -350 -38 -266 -52 -428 -92 -1030 -14 -217 -34 -494 -44 -615 -11 -121
-35 -400 -54 -620 -44 -500 -51 -609 -76 -1190 -18 -411 -30 -629 -56 -977 -4
-49 -5 -88 -3 -87 2 0 88 21 191 47 l187 47 5 335 c7 475 83 1777 146 2485 6
61 26 297 45 525 20 228 63 658 96 955 34 297 67 596 75 665 43 396 74 971 74
1410 1 492 15 616 83 688 34 38 126 105 199 148 37 21 68 42 68 45 0 13 -91
29 -162 28 -40 -1 -98 -7 -129 -13z"/>
<path d="M33294 9193 c-68 -86 -121 -202 -145 -318 -11 -58 -47 -404 -84 -815
-156 -1716 -205 -2277 -215 -2450 -12 -222 -29 -433 -75 -925 -60 -650 -66
-753 -100 -1690 -13 -368 -27 -722 -31 -785 -3 -63 -3 -112 0 -109 10 10 34
353 51 739 35 785 37 812 95 1490 52 598 74 894 105 1360 30 457 34 493 85
855 50 358 55 406 145 1469 68 805 78 896 100 957 32 90 76 185 108 237 39 61
15 52 -39 -15z"/>
<path d="M43320 9233 c-19 -2 -76 -10 -126 -18 -50 -8 -120 -15 -155 -15 -40
-1 -71 -6 -83 -15 -11 -8 -28 -15 -37 -15 -13 0 -19 -10 -21 -37 l-3 -38 -315
-7 c-231 -4 -333 -10 -384 -22 -38 -8 -71 -18 -74 -21 -9 -8 43 -23 129 -37
96 -15 1191 -19 1292 -5 56 8 58 9 42 27 -9 10 -20 43 -24 72 l-6 53 -42 3
c-35 3 -48 10 -76 43 -35 40 -37 40 -117 32z"/>
<path d="M33771 9173 c-61 -22 -130 -94 -172 -178 -33 -67 -34 -74 -37 -208
-3 -100 1 -163 13 -230 14 -74 16 -122 11 -247 -17 -401 -118 -1592 -176
-2080 -55 -461 -85 -866 -150 -2005 -17 -291 -35 -586 -40 -655 -5 -69 -17
-222 -25 -340 -8 -118 -25 -331 -37 -472 -12 -142 -19 -260 -16 -263 8 -8 156
54 248 104 41 23 91 59 111 81 40 43 53 90 64 235 7 81 41 215 54 215 10 0 31
-172 31 -254 0 -174 -71 -310 -208 -397 -48 -30 -194 -81 -268 -94 l-42 -6 -5
-517 c-3 -284 -10 -560 -16 -612 -8 -74 -61 -798 -61 -841 0 -6 74 -8 193 -7
l192 3 3 202 2 202 34 11 c20 6 55 8 85 4 47 -6 53 -4 113 36 35 24 225 167
423 320 492 377 495 380 710 530 105 73 242 171 305 218 274 204 503 362 522
362 12 0 75 -48 458 -345 58 -45 253 -195 434 -335 385 -297 370 -278 369
-450 0 -58 -8 -172 -18 -255 -9 -82 -17 -199 -17 -260 -1 -123 13 -168 59
-205 60 -47 224 -4 265 70 18 33 19 50 13 340 -7 297 -7 305 11 289 11 -8 48
-41 83 -72 37 -33 86 -65 115 -76 l51 -19 3 -286 2 -286 170 0 170 0 0 202 c0
195 -1 201 -19 184 -18 -16 -18 -10 -24 201 -8 296 -19 332 -101 354 -176 47
-255 97 -408 260 -114 122 -162 160 -342 263 -102 58 -187 132 -211 182 -9 20
-23 43 -31 52 -7 10 -28 42 -46 72 -35 57 -53 72 -219 185 -147 100 -202 153
-244 237 -19 39 -35 81 -35 93 0 52 114 156 320 293 80 53 177 118 215 146
166 119 437 364 575 520 88 100 95 105 103 84 13 -34 2 -187 -17 -231 -20 -45
-15 -57 25 -57 26 0 32 6 50 48 20 46 20 49 3 137 -9 50 -25 114 -36 144 -23
69 -23 74 5 66 31 -10 66 -44 88 -87 24 -48 93 -81 224 -109 55 -12 106 -23
114 -25 11 -4 12 -19 7 -75 -4 -40 -12 -83 -17 -96 -5 -13 -9 -58 -9 -98 l0
-74 37 -26 38 -25 6 24 c4 14 10 73 14 131 6 78 11 108 22 112 8 3 107 -11
221 -31 114 -19 252 -43 307 -51 55 -9 106 -18 113 -21 9 -3 -8 -28 -49 -72
-173 -187 -209 -322 -155 -574 46 -210 84 -479 90 -638 9 -208 24 -404 37
-465 33 -153 85 -286 164 -413 37 -60 38 -61 94 -69 78 -11 294 -8 366 6 83
15 196 53 202 67 5 15 -28 81 -78 155 -76 113 -99 162 -133 282 -50 176 -99
305 -169 447 -78 157 -77 154 -24 98 52 -55 153 -239 281 -508 108 -227 226
-496 226 -514 0 -15 -107 -65 -190 -89 -66 -19 -268 -55 -330 -59 -40 -3 -45
-6 -48 -28 -2 -16 18 -67 53 -133 70 -133 79 -189 43 -256 -13 -25 -28 -46
-33 -47 -6 -2 -53 62 -104 142 -170 260 -293 357 -551 429 -98 27 -290 65
-301 59 -3 -2 -9 -46 -13 -99 -6 -84 -13 -107 -51 -190 l-44 -95 42 -31 c23
-17 80 -51 127 -76 47 -26 169 -97 272 -159 280 -168 206 -154 808 -154 281 0
510 4 510 8 0 5 -9 35 -20 68 -52 151 -55 177 -54 539 1 248 6 388 19 515 22
222 23 493 1 725 -14 142 -19 363 -26 1035 -5 470 -13 910 -16 978 l-7 122 53
105 53 105 5 154 c5 162 -4 277 -44 576 -14 102 -34 274 -44 382 -13 143 -24
209 -38 240 -27 58 -258 303 -287 303 -16 0 -61 -47 -164 -167 -143 -169 -591
-611 -591 -583 0 4 31 41 68 83 38 43 180 205 317 362 136 157 257 295 267
306 17 19 18 27 9 60 -13 46 -18 49 -301 202 -107 58 -265 143 -350 189 -85
46 -206 109 -269 139 -63 31 -162 86 -220 123 -134 86 -109 74 -421 213 -298
133 -446 213 -552 301 -84 69 -142 107 -161 107 -8 0 -22 -10 -33 -21 -37 -42
-113 -69 -192 -69 -91 0 -259 33 -328 64 -49 23 -54 29 -106 127 -30 57 -53
106 -51 108 2 3 45 -36 96 -86 l92 -91 118 -16 c65 -9 146 -16 178 -16 70 0
199 27 199 42 0 17 -40 69 -105 138 -73 77 -99 121 -156 259 -32 77 -54 114
-87 147 -24 24 -47 44 -51 44 -3 0 -5 -61 -3 -135 5 -160 -6 -200 -70 -264
-23 -22 -45 -41 -48 -41 -4 0 -5 33 -2 74 4 74 4 76 -36 139 -41 66 -162 300
-162 315 0 11 68 32 102 32 26 0 98 66 98 89 0 15 -61 243 -66 250 -2 2 -35
-10 -73 -28 -104 -48 -192 -63 -376 -63 -196 -1 -334 17 -595 79 -295 69 -401
104 -685 227 -143 62 -284 121 -314 131 -102 33 -190 5 -231 -75 -51 -100 -54
-379 -4 -457 23 -37 128 -54 559 -88 313 -25 460 -48 581 -91 40 -14 82 -36
94 -49 12 -12 39 -70 60 -128 49 -135 76 -174 233 -332 97 -98 139 -149 173
-208 49 -87 52 -101 27 -93 -10 2 -34 7 -53 11 -63 12 -70 16 -96 57 -14 22
-50 70 -80 106 -29 37 -127 175 -217 307 -149 218 -166 240 -198 247 -18 4
-113 19 -209 33 -96 14 -185 27 -198 29 -18 3 -22 0 -16 -13 12 -28 227 -609
389 -1051 76 -208 89 -240 151 -363 85 -169 136 -242 248 -352 87 -86 116
-108 196 -148 154 -76 237 -92 475 -91 212 0 300 10 523 60 240 54 467 134
712 251 147 71 359 157 367 150 7 -8 -138 -126 -197 -160 -177 -102 -420 -188
-850 -302 -329 -86 -409 -100 -595 -99 -130 1 -175 5 -237 22 -96 26 -209 78
-296 136 -128 85 -310 283 -386 421 -89 162 -398 1028 -492 1380 -20 77 -43
146 -49 153 -12 13 -430 61 -535 62 l-46 0 -12 -377 c-7 -208 -19 -511 -27
-673 -62 -1227 -61 -1348 12 -1559 41 -121 162 -340 307 -557 52 -79 94 -124
211 -231 120 -110 162 -142 237 -179 170 -86 375 -142 548 -150 104 -6 171 7
329 65 l85 30 375 -1 c400 -1 494 5 716 48 358 69 652 177 1128 415 131 66
241 119 242 117 2 -2 -134 -93 -302 -202 l-306 -200 -341 -77 c-187 -42 -451
-103 -586 -134 l-245 -58 -365 -2 c-380 -2 -407 -5 -585 -51 -195 -51 -311
-40 -575 54 -60 22 -88 39 -145 93 -38 36 -103 87 -142 113 -43 28 -100 79
-140 124 -37 42 -109 118 -159 167 -92 90 -144 162 -262 369 l-50 87 -6 -73
c-6 -70 -56 -966 -56 -999 0 -14 31 -17 258 -22 141 -4 460 -1 707 5 320 8
506 8 644 1 153 -8 318 -6 780 8 322 10 611 18 643 19 l56 0 22 -62 c12 -35
24 -97 27 -139 5 -68 3 -83 -20 -132 -30 -67 -63 -100 -242 -247 -212 -173
-357 -304 -596 -537 -241 -235 -289 -269 -366 -260 -60 6 -121 50 -288 203
-130 120 -350 310 -575 499 -142 119 -279 255 -405 400 -62 72 -126 142 -142
157 l-29 28 -227 -7 -227 -6 0 -226 1 -226 147 -126 c81 -70 192 -164 246
-210 55 -46 145 -123 200 -170 56 -47 197 -159 314 -249 327 -250 410 -334
453 -454 32 -93 28 -107 -38 -140 -72 -35 -315 -195 -663 -436 -489 -338 -724
-497 -857 -579 l-133 -81 0 43 c0 109 41 724 52 766 13 56 32 95 68 141 39 50
56 87 69 150 11 53 71 1078 71 1210 0 46 6 76 20 102 l20 37 -32 73 -32 73 0
415 c0 228 5 495 12 594 7 109 12 418 12 798 0 468 5 728 20 1061 28 617 30
1011 6 1302 -34 419 -26 556 40 688 30 58 96 132 138 154 l31 16 -50 24 c-59
27 -128 29 -194 6z"/>
<path d="M46952 9103 c267 -2 708 -2 980 0 271 1 52 2 -487 2 -539 0 -761 -1
-493 -2z"/>
<path d="M36055 8924 c-100 -38 -276 -59 -715 -85 -206 -12 -295 -22 -270 -31
46 -17 512 -112 610 -125 172 -23 494 -3 493 30 -2 37 -58 227 -67 226 -6 0
-29 -7 -51 -15z"/>
<path d="M16837 8883 c-39 -59 -86 -105 -168 -166 -67 -49 -78 -61 -88 -101
-13 -52 -14 -83 -3 -89 4 -3 21 -8 38 -11 28 -6 33 -3 56 32 31 46 202 372
195 372 -2 0 -16 -17 -30 -37z"/>
<path d="M34835 8790 l-40 -5 75 -22 c166 -50 416 -105 605 -134 96 -15 438
-16 480 -1 25 9 14 10 -66 11 -136 1 -291 24 -523 76 -307 70 -436 88 -531 75z"/>
<path d="M33521 8505 c-3 -632 -41 -1204 -131 -1965 -58 -485 -90 -815 -139
-1410 -112 -1342 -172 -2348 -171 -2835 l1 -270 -222 -55 c-127 -32 -224 -61
-227 -68 -10 -30 11 -83 49 -126 43 -49 56 -56 56 -30 0 9 -18 30 -39 47 -21
16 -38 34 -38 39 0 12 180 97 280 132 50 18 89 26 120 24 l45 -3 3 206 2 206
104 25 c200 50 300 117 363 245 36 72 37 80 41 200 3 78 1 128 -6 135 -7 7
-12 -15 -16 -68 -19 -235 -45 -277 -226 -376 -87 -47 -249 -113 -257 -104 -4
4 1 98 11 209 40 457 63 787 121 1777 57 962 78 1228 150 1905 83 776 165
1791 165 2046 0 65 -5 141 -11 170 -6 28 -15 92 -19 143 -5 67 -8 14 -9 -199z"/>
<path d="M43660 8427 c-3 -3 -864 -7 -1915 -10 l-1910 -4 -57 -22 c-102 -39
-94 -63 34 -102 65 -20 86 -21 585 -17 285 1 1850 -1 3478 -6 2162 -6 3110 -5
3515 3 538 11 830 23 921 39 42 7 44 9 44 42 l0 35 -65 7 c-177 20 -927 29
-2690 35 -1064 3 -1937 3 -1940 0z"/>
<path d="M36218 8344 c-27 -24 -47 -34 -70 -34 -68 0 -68 -9 -6 -133 31 -62
76 -142 99 -177 38 -59 41 -68 36 -112 -4 -26 -2 -48 3 -48 5 0 21 21 36 46
22 37 28 62 31 123 2 42 0 96 -4 121 l-8 45 -25 -98 c-13 -53 -27 -93 -31 -89
-3 4 -27 70 -54 147 -26 77 -50 146 -53 154 -4 11 7 12 61 7 l67 -8 -19 41
c-10 23 -20 43 -22 45 -2 3 -21 -11 -41 -30z"/>
<path d="M39680 8256 c0 -37 -8 -160 -17 -274 -22 -271 -26 -1153 -5 -1174 11
-11 702 -13 3790 -13 3508 0 3816 1 4317 19 386 13 544 22 553 31 23 21 31
238 32 854 0 553 -1 593 -17 587 -33 -13 -219 -26 -541 -37 -386 -14 -3278
-18 -6097 -7 -2015 7 -1892 4 -1981 59 l-34 21 0 -66z"/>
<path d="M5623 8093 c-90 -3 -104 -6 -113 -23 -11 -20 -6 -20 234 -20 l246 0
-12 25 c-11 25 -12 25 -132 23 -67 -1 -167 -4 -223 -5z"/>
<path d="M17793 8027 c-55 -10 -73 -30 -25 -27 15 1 32 2 37 1 14 -1 1 -272
-25 -511 -12 -107 -24 -259 -27 -337 l-5 -142 30 -39 c38 -47 52 -82 52 -128
0 -66 17 -33 35 69 13 78 19 97 26 80 15 -42 20 -118 11 -167 -7 -32 -7 -59 0
-75 9 -24 79 -123 84 -118 1 1 10 81 19 177 29 295 18 1101 -15 1134 -12 12
-35 -41 -50 -119 -6 -33 -15 -123 -19 -200 l-7 -140 -27 82 c-48 148 -54 277
-21 441 7 36 10 35 -73 19z"/>
<path d="M4790 8016 c-322 -4 -587 -10 -590 -13 -8 -7 -13 -958 -5 -1058 5
-66 12 -101 23 -114 16 -18 39 -18 570 -13 l552 5 0 301 0 301 33 -37 c56 -63
39 -60 512 -88 192 -12 350 -22 351 -23 0 -1 20 -36 44 -77 199 -345 493 -698
1322 -1586 338 -362 454 -494 489 -560 l22 -41 -40 -59 c-55 -80 -122 -147
-288 -289 -289 -246 -420 -379 -615 -625 -113 -143 -141 -172 -271 -286 -63
-54 -148 -130 -189 -169 -41 -39 -95 -85 -120 -102 -128 -86 -426 -223 -553
-253 -154 -37 -246 -25 -482 65 -152 58 -261 85 -341 85 l-44 0 0 863 c0 474
-1 1035 -3 1247 l-2 385 -27 55 c-15 30 -43 74 -63 98 -41 51 -40 75 12 170
l34 62 -371 0 c-203 0 -370 -3 -370 -7 1 -21 24 -39 62 -49 l43 -10 -3 -65
c-2 -35 -20 -125 -40 -199 l-37 -135 1 -845 c1 -465 9 -1311 17 -1880 9 -569
19 -1257 22 -1527 l6 -493 -108 6 c-59 3 -114 8 -122 10 -24 8 -184 -18 -238
-38 -62 -23 -117 -79 -134 -138 -16 -52 -2 -146 35 -235 l24 -60 -104 -3 -104
-3 0 -214 0 -215 820 0 820 0 0 103 c0 56 -5 121 -10 144 -6 24 -37 195 -70
380 -34 186 -67 360 -75 387 -13 42 -15 205 -15 1079 l0 1029 63 -7 c95 -10
159 -32 303 -102 210 -101 316 -120 497 -88 264 46 536 191 831 443 115 98
350 331 706 701 328 340 479 461 649 516 68 22 199 17 251 -10 47 -24 185
-141 257 -218 32 -34 260 -233 506 -441 668 -563 800 -644 1080 -663 77 -5 97
-3 97 7 0 27 -89 97 -203 160 -296 164 -370 207 -487 285 -172 115 -305 223
-604 493 -140 127 -297 266 -348 309 -132 111 -214 190 -263 254 l-43 55 55
75 c81 107 194 236 418 474 279 296 282 299 900 1015 625 724 574 676 745 701
100 15 506 18 881 6 l256 -8 31 148 31 148 -4 -300 c-6 -332 -3 -354 52 -391
18 -12 58 -25 90 -29 32 -4 243 -4 469 0 l412 8 7 81 c11 136 11 251 -3 471
-10 141 -12 273 -7 403 4 108 4 192 -1 192 -5 0 -76 7 -159 15 -410 39 -1824
44 -4130 14 -943 -12 -2144 -7 -2340 10 -169 15 -691 17 -1375 7z m4465 -755
c143 -7 416 -15 606 -19 l347 -7 -689 -805 c-379 -443 -708 -822 -731 -843
-24 -21 -88 -77 -143 -125 -189 -163 -251 -224 -311 -306 l-21 -29 -64 46
c-414 298 -1373 1340 -1746 1898 -75 113 -123 191 -123 203 0 12 2581 0 2875
-13z m-4119 -1916 c-14 -36 -26 -71 -26 -78 0 -8 11 -41 25 -75 31 -76 31 -78
-1 -57 -18 11 -36 15 -57 11 l-30 -6 6 82 c4 46 7 98 7 116 0 19 5 32 13 32 7
0 28 11 47 24 19 13 37 22 39 20 2 -2 -8 -33 -23 -69z"/>
<path d="M17620 7965 c-147 -90 -369 -156 -860 -256 -190 -38 -366 -76 -392
-85 -52 -17 -104 -53 -78 -54 8 0 174 21 367 47 194 26 355 44 358 42 8 -9
-35 -228 -62 -314 -55 -175 -87 -213 -302 -357 -93 -62 -168 -114 -167 -116 6
-6 114 22 161 41 72 30 115 65 115 93 0 18 5 24 23 24 24 0 59 31 70 63 5 13
13 16 30 12 19 -5 31 1 58 33 47 55 68 119 81 242 5 58 15 152 22 209 l11 105
160 58 c88 32 162 58 165 58 7 0 -7 -222 -20 -310 -66 -452 -247 -875 -432
-1013 -78 -57 -243 -144 -365 -190 -279 -107 -410 -126 -616 -87 -65 12 -120
20 -122 18 -11 -10 75 -84 125 -107 88 -41 236 -35 405 16 117 35 434 148 475
169 114 57 310 295 414 501 86 170 127 323 189 708 14 83 35 177 47 209 38 99
115 165 223 190 l27 6 0 -115 c0 -63 -7 -236 -16 -383 -12 -201 -15 -346 -10
-586 l7 -319 33 -41 c99 -121 132 -232 145 -486 6 -122 14 -186 25 -210 15
-34 16 -31 11 80 -3 63 -7 210 -10 325 -3 116 -8 251 -11 302 l-6 91 -29 -10
c-22 -8 -28 -15 -24 -28 9 -27 -23 -29 -67 -5 l-38 20 -1 85 c0 47 -4 180 -8
295 -9 217 -6 271 28 610 11 110 22 253 23 317 l3 116 -35 5 c-19 3 -44 7 -55
10 -13 4 -40 -6 -75 -28z"/>
<path d="M34685 7855 c4 -11 47 -137 95 -280 102 -306 236 -657 292 -770 101
-202 308 -414 499 -510 38 -19 108 -47 156 -62 80 -24 103 -27 258 -27 196 -1
262 10 602 99 359 93 538 154 728 245 114 55 181 97 172 107 -3 2 -78 -30
-168 -72 -387 -181 -617 -256 -969 -316 -193 -33 -476 -33 -603 -1 -296 74
-487 239 -655 565 -57 111 -99 214 -217 537 -147 401 -167 454 -182 480 -9 16
-12 18 -8 5z"/>
<path d="M17760 6808 c0 -189 7 -245 31 -251 18 -5 19 3 19 151 0 133 -3 163
-20 200 -10 23 -21 42 -25 42 -3 0 -5 -64 -5 -142z"/>
<path d="M47702 6786 l-564 -21 -28 -31 c-21 -24 -31 -50 -40 -102 -6 -39 -10
-83 -8 -99 l3 -28 174 -3 c149 -2 176 0 192 14 16 14 22 15 61 2 32 -11 47
-23 60 -49 9 -19 15 -35 14 -36 -1 -1 -26 5 -56 14 -64 18 -91 19 -145 4 -22
-6 -97 -11 -167 -11 -71 0 -128 -4 -128 -8 0 -5 20 -103 44 -218 24 -115 49
-235 56 -266 l11 -58 165 0 164 0 6 -26 c4 -15 -3 -162 -16 -328 l-23 -301 32
-1025 c43 -1405 45 -1566 32 -2192 -6 -301 -14 -757 -18 -1012 l-6 -465 -46
-10 c-25 -5 -67 -13 -94 -16 -26 -4 -50 -11 -52 -16 -5 -7 253 -94 260 -87 9
10 27 188 36 361 15 269 5 1455 -16 1832 -8 154 -22 399 -30 545 -32 585 -43
1255 -31 1914 l9 478 66 -6 c36 -4 129 -18 206 -31 77 -13 181 -25 230 -27
l90 -3 -3 25 c-2 14 -5 26 -6 27 -2 3 -499 83 -511 83 -3 0 -5 52 -5 115 l0
115 255 0 c140 0 255 2 255 5 0 15 -48 75 -65 81 -11 4 -115 8 -230 9 -242 2
-262 7 -289 75 -9 22 -16 54 -16 72 l0 31 93 -7 c352 -24 413 -20 523 35 93
47 99 62 84 221 -19 195 1 361 50 412 20 22 18 37 -4 35 -6 -1 -264 -11 -574
-23z"/>
<path d="M11870 6753 c0 -3 11 -25 24 -47 19 -33 24 -60 29 -141 11 -208 7
-207 437 -203 l315 3 3 25 c2 14 19 91 38 171 19 80 34 158 34 172 l0 27 -440
0 c-242 0 -440 -3 -440 -7z"/>
<path d="M39719 6742 c14 -26 98 -32 479 -32 l315 0 -23 25 -23 25 -379 0
c-365 0 -378 -1 -369 -18z"/>
<path d="M4240 6685 c0 -22 4 -24 58 -27 l57 -3 -1 -70 c0 -38 -2 -108 -5
-154 l-4 -84 50 -13 c62 -17 650 -19 707 -4 52 15 72 46 113 174 20 61 44 132
55 159 l20 47 -525 0 -525 0 0 -25z"/>
<path d="M39729 6698 c-6 -21 -2 -114 6 -124 17 -22 173 -34 450 -34 l260 1
42 61 c30 43 40 65 32 73 -6 6 -139 10 -387 10 -207 0 -383 4 -389 8 -7 5 -13
7 -14 5z"/>
<path d="M40488 6561 c-26 -38 -28 -39 -105 -47 -81 -7 -512 1 -596 12 l-48 7
12 -25 c11 -25 14 -25 162 -31 82 -4 237 -7 343 -7 l193 0 24 33 c31 41 60 97
50 97 -5 -1 -20 -18 -35 -39z"/>
<path d="M39733 6438 c-4 -7 -11 -1181 -14 -2608 -4 -1620 -10 -2670 -17
-2795 -6 -110 -12 -297 -13 -415 l-3 -215 477 -3 c378 -2 477 0 477 10 0 20
-46 113 -99 202 -26 45 -64 111 -84 147 -20 36 -59 86 -86 112 l-51 48 0 717
c0 1058 19 1668 62 2067 18 163 21 262 23 700 2 399 6 537 19 635 20 161 20
329 0 428 -25 121 -15 328 25 512 39 177 45 313 16 402 -16 48 -22 57 -48 62
-16 3 -175 6 -353 6 -247 0 -325 -3 -331 -12z m117 -4879 l0 -280 -32 3 -33 3
-3 278 -2 277 35 0 35 0 0 -281z m40 -679 l0 -340 -35 0 -35 0 0 333 c0 184 3
337 7 340 3 4 19 7 35 7 l28 0 0 -340z"/>
<path d="M17696 6313 c-13 -73 -48 -162 -86 -222 -34 -52 -37 -61 -24 -72 26
-22 67 -100 85 -163 l18 -61 1 80 c1 44 5 168 9 275 5 107 7 196 6 198 -2 2
-6 -14 -9 -35z"/>
<path d="M12300 6289 c-155 -6 -211 -16 -223 -37 -3 -4 6 -39 20 -78 19 -54
24 -81 20 -125 -6 -72 -19 -95 -122 -224 -199 -250 -225 -370 -145 -680 23
-88 43 -162 46 -164 18 -19 60 124 74 251 13 123 24 167 57 232 51 100 154
186 408 342 92 56 210 172 250 246 l28 51 -23 99 -24 98 -100 -2 c-56 0 -175
-4 -266 -9z"/>
<path d="M48126 6103 c-80 -40 -158 -48 -341 -35 -218 17 -225 16 -225 -8 0
-33 23 -71 53 -86 23 -12 54 -14 172 -8 98 5 168 3 225 -6 l81 -13 42 -55 42
-55 6 29 c9 42 10 264 2 263 -5 -1 -30 -13 -57 -26z"/>
<path d="M17470 5918 c-109 -116 -339 -319 -455 -403 -235 -168 -461 -222
-828 -195 -92 7 -170 10 -173 8 -12 -13 46 -76 91 -98 42 -21 67 -25 160 -28
237 -8 568 100 821 266 173 114 357 290 416 399 24 44 71 154 65 153 -1 -1
-45 -46 -97 -102z"/>
<path d="M17564 5935 c-45 -120 -171 -265 -355 -411 -130 -104 -336 -213 -514
-273 l-90 -31 156 0 c86 0 259 3 385 7 l229 6 101 101 c111 110 144 164 170
273 28 119 7 285 -45 352 l-18 24 -19 -48z"/>
<path d="M47153 5848 c-10 -16 -7 -574 12 -1998 17 -1322 21 -1466 40 -1652 8
-78 26 -486 40 -907 14 -420 26 -766 28 -767 2 -3 209 34 213 38 9 10 29 1446
28 2038 0 587 -6 887 -32 1675 -33 990 -33 1001 -2 1350 5 61 10 138 10 173
l0 62 -164 0 c-121 0 -167 -3 -173 -12z"/>
<path d="M47647 5813 c-9 -9 -9 -171 1 -176 4 -3 116 -22 249 -43 199 -31 246
-36 268 -26 l26 12 -3 117 -3 118 -266 3 c-146 1 -268 -1 -272 -5z"/>
<path d="M17667 5579 c-31 -146 -238 -363 -467 -489 -95 -53 -251 -105 -359
-121 -150 -21 -345 -2 -511 50 -36 12 -67 21 -70 21 -2 0 18 -22 44 -49 62
-62 110 -83 283 -122 76 -17 165 -42 197 -55 71 -29 69 -29 54 -4 -7 10 -10
21 -7 24 3 3 56 28 119 56 175 78 352 175 439 241 95 71 214 196 259 271 31
52 33 60 30 134 -3 66 -4 73 -11 43z"/>
<path d="M47580 5363 c0 -82 -5 -330 -11 -553 -10 -344 -9 -485 5 -935 9 -291
25 -672 36 -845 32 -523 43 -933 43 -1595 0 -577 -5 -765 -29 -978 l-7 -57
247 0 246 0 0 1053 c0 989 1 1065 20 1252 19 181 21 252 18 819 -3 556 0 683
24 1211 16 325 28 618 28 653 l0 62 -109 0 c-74 0 -165 10 -287 30 -98 16
-189 30 -201 30 -23 0 -23 -1 -23 -147z"/>
<path d="M17726 5393 c4 -10 9 -51 12 -90 l4 -73 89 0 89 0 0 53 0 54 -93 36
c-106 42 -112 43 -101 20z"/>
<path d="M16401 5182 c-102 -13 -137 -14 -207 -4 -96 14 -1357 5 -1348 -10 3
-4 270 -8 594 -8 567 0 677 -5 704 -31 18 -16 -1 -20 -46 -9 -34 9 -176 7
-606 -10 l-561 -21 -39 20 c-22 11 -52 30 -68 43 -27 22 -36 23 -129 18 l-99
-5 -52 -65 c-29 -35 -51 -66 -50 -68 7 -6 344 -83 471 -107 72 -14 207 -36
300 -50 113 -17 178 -31 194 -43 16 -12 36 -54 65 -137 23 -66 52 -141 63
-167 26 -57 18 -55 278 -63 105 -3 249 -8 320 -11 l130 -6 -21 22 c-20 21 -32
22 -253 29 l-232 7 -104 104 c-58 58 -105 110 -105 117 0 7 12 13 28 13 51 0
1137 40 1152 43 21 3 -104 41 -225 67 -169 38 -188 48 -300 160 l-100 101 55
-22 c175 -70 322 -100 485 -100 139 0 234 16 357 61 76 28 234 112 263 141 16
16 -770 9 -914 -9z"/>
<path d="M14342 4984 c2 -9 48 -36 111 -64 204 -91 346 -197 461 -344 56 -71
62 -76 98 -76 21 0 38 3 38 8 0 4 -32 46 -71 95 -95 119 -188 186 -422 302
-105 52 -197 95 -205 95 -7 0 -12 -7 -10 -16z"/>
<path d="M14160 4822 c0 -56 8 -113 31 -234 l12 -58 47 0 47 0 -13 68 c-8 37
-17 115 -20 175 l-7 107 -49 0 -48 0 0 -58z"/>
<path d="M17769 4793 l-46 -4 -38 -142 c-21 -78 -40 -149 -43 -157 -15 -43 48
38 120 154 94 153 96 157 72 154 -11 -1 -40 -3 -65 -5z"/>
<path d="M17240 4774 c-168 -7 -311 -13 -318 -13 -8 -1 4 -16 26 -34 57 -48
40 -69 -19 -24 -24 19 -54 39 -66 45 -16 9 -162 7 -620 -10 -329 -11 -600 -23
-603 -25 -2 -2 36 -44 85 -93 l90 -89 180 -6 c186 -6 197 -1 77 30 -38 10 -60
11 -79 4 -20 -7 -30 -6 -40 4 -11 11 -10 17 7 35 28 30 74 29 107 -4 22 -22
29 -24 56 -15 61 22 120 13 205 -29 44 -22 91 -40 105 -40 14 0 72 20 130 45
58 25 111 45 117 45 19 0 88 -39 124 -70 l34 -30 263 -9 c145 -6 321 -9 391
-9 l126 1 6 26 c3 14 21 83 40 154 l34 127 -76 -1 c-43 -1 -214 -8 -382 -15z
m398 -6 c-3 -7 -36 -29 -74 -50 -38 -20 -73 -45 -79 -55 -16 -28 -27 -33 -83
-33 -59 0 -93 -15 -165 -71 -27 -22 -56 -39 -64 -39 -9 0 -34 19 -55 43 l-40
42 99 5 c102 5 158 24 170 58 10 26 24 32 83 32 45 0 67 7 125 40 75 42 89 47
83 28z"/>
<path d="M34706 4702 c22 -20 68 -41 155 -69 150 -49 257 -68 347 -60 111 9
121 22 19 24 -113 2 -257 33 -402 85 -153 55 -156 56 -119 20z"/>
<path d="M35645 4688 c-52 -7 -169 -48 -161 -55 3 -3 28 0 57 6 32 7 171 11
368 11 304 -1 404 6 520 32 46 11 -3 13 -341 13 -217 0 -417 -3 -443 -7z"/>
<path d="M16555 4524 l-130 -55 -85 44 c-88 46 -138 61 -166 50 -11 -4 8 -15
57 -33 90 -32 111 -57 111 -128 -1 -29 4 -54 9 -58 6 -3 72 29 147 71 l137 77
118 -41 119 -41 -30 38 c-39 48 -78 84 -122 110 l-35 21 -130 -55z"/>
<path d="M14210 4504 c0 -5 14 -52 30 -104 39 -120 150 -348 227 -465 159
-241 406 -502 696 -734 97 -77 93 -76 216 -52 l33 6 -273 240 c-151 132 -314
278 -363 325 -208 200 -360 435 -438 676 -33 102 -33 103 -65 104 -17 0 -38 3
-47 6 -9 3 -16 2 -16 -2z"/>
<path d="M16878 4448 c21 -21 33 -23 187 -26 145 -4 172 -2 213 14 l47 19
-100 6 c-55 4 -161 7 -235 8 l-134 1 22 -22z"/>
<path d="M18260 4404 c0 -43 40 -268 50 -277 4 -5 50 -1 101 10 l94 18 7 57
c4 32 12 67 18 77 7 15 6 34 -7 74 -16 54 -17 55 -61 61 -25 3 -80 6 -123 6
-79 0 -79 0 -79 -26z"/>
<path d="M17408 3931 c-19 -4 -42 -31 -88 -101 -35 -52 -90 -123 -123 -157
l-60 -63 50 0 c49 0 53 2 107 60 82 90 103 119 135 198 31 74 30 75 -21 63z"/>
<path d="M16947 3851 c-20 -5 -40 -11 -43 -14 -3 -3 1 -25 10 -49 9 -24 20
-72 24 -108 l7 -65 74 -3 74 -3 -6 80 c-4 58 -12 92 -29 123 -25 47 -42 52
-111 39z"/>
<path d="M37395 3743 c7 -27 19 -76 26 -110 6 -35 14 -63 17 -63 3 0 13 7 23
16 25 22 91 29 145 14 56 -16 85 -52 111 -139 23 -74 28 -68 48 51 l12 78 -36
6 c-199 34 -279 73 -322 157 -27 52 -41 46 -24 -10z"/>
<path d="M37468 3557 c-17 -14 -31 -38 -37 -65 -5 -24 -16 -51 -25 -61 -8 -9
-26 -46 -40 -82 -13 -36 -60 -137 -103 -225 l-78 -159 -3 -122 c-2 -68 -6
-123 -10 -123 -3 0 -25 18 -48 41 l-41 40 -66 -73 c-60 -65 -74 -91 -138 -238
-40 -91 -94 -214 -120 -273 -27 -60 -49 -112 -49 -116 0 -3 28 -22 63 -40 102
-56 318 -191 379 -238 32 -24 74 -65 93 -91 93 -122 198 -203 325 -249 78 -29
132 -36 178 -24 l39 11 6 433 c3 255 12 522 22 652 18 239 17 547 -1 565 -8 8
-13 1 -19 -27 -4 -21 -35 -108 -70 -193 -87 -215 -101 -285 -125 -605 -11
-138 -33 -302 -47 -350 -22 -75 -41 202 -24 353 13 110 46 284 110 587 55 256
76 413 67 497 -9 80 -49 167 -86 185 -42 21 -121 16 -152 -10z"/>
<path d="M37900 3429 c0 -26 3 -30 18 -23 9 4 49 10 87 11 80 4 125 -13 159
-60 18 -24 21 -42 19 -110 -1 -45 -8 -122 -17 -172 -45 -258 -44 -537 0 -1312
15 -260 26 -474 23 -477 -5 -5 -366 37 -373 44 -3 3 5 41 18 85 50 173 54 275
26 685 -13 198 -12 416 4 591 17 183 20 233 18 362 -2 91 -4 100 -28 124 -34
34 -40 24 -19 -34 26 -74 30 -289 10 -548 -11 -134 -20 -400 -24 -677 -5 -341
-10 -461 -19 -470 -18 -18 -135 -22 -190 -7 -157 43 -256 114 -400 287 -23 28
-71 71 -105 95 -102 72 -368 229 -375 222 -15 -16 123 -124 250 -195 127 -72
140 -82 293 -235 172 -173 206 -196 342 -234 97 -26 112 -36 135 -87 15 -36
21 -85 31 -248 l11 -204 37 84 c32 71 39 99 47 194 5 61 11 112 14 115 7 7
215 -31 323 -60 55 -14 147 -49 204 -77 91 -44 116 -62 196 -141 64 -63 117
-130 171 -212 43 -66 79 -122 82 -125 11 -14 32 40 32 81 0 37 -11 70 -55 156
-54 107 -60 124 -57 174 2 26 5 27 75 34 109 10 276 42 354 69 72 25 133 53
133 62 0 11 -86 205 -167 377 -47 100 -99 211 -115 246 -16 35 -31 61 -33 59
-2 -2 18 -80 46 -173 47 -157 55 -176 124 -282 89 -138 115 -198 94 -218 -22
-21 -155 -62 -247 -75 -84 -13 -355 -9 -399 5 -21 7 -69 80 -137 210 l-27 50
6 -100 c4 -55 9 -108 12 -119 5 -17 0 -18 -54 -14 -57 4 -140 36 -188 74 -19
15 -19 16 26 57 25 23 69 63 99 88 l54 46 -104 19 -105 19 -17 65 c-44 161
-51 270 -49 759 0 256 3 467 6 470 7 7 81 -65 116 -113 16 -21 29 -34 29 -28
0 7 -12 67 -26 134 -51 236 -18 364 144 556 24 29 43 54 41 56 -4 4 -551 96
-569 96 -5 0 -10 -14 -10 -31z"/>
<path d="M37290 3402 c0 -46 -45 -187 -105 -328 -68 -159 -88 -241 -65 -269
23 -27 27 -16 32 73 4 85 6 91 85 252 78 160 121 266 112 273 -2 2 -16 7 -31
11 -23 5 -28 3 -28 -12z"/>
<path d="M37918 3368 c-10 -17 -12 -79 -10 -252 2 -158 -2 -289 -14 -420 -18
-208 -15 -549 7 -781 17 -186 5 -351 -38 -498 -13 -45 -14 -60 -5 -66 7 -4 67
-13 135 -20 67 -7 132 -15 145 -18 21 -5 22 -3 22 63 0 38 -9 213 -20 389 -42
662 -43 1065 -5 1285 8 47 18 122 21 167 11 140 -18 173 -150 173 -68 0 -77
-2 -88 -22z"/>
<path d="M37725 3198 c-3 -35 -20 -130 -37 -211 -16 -82 -28 -151 -25 -153 7
-7 94 217 116 300 l22 80 -28 22 c-15 13 -31 23 -35 24 -3 0 -9 -28 -13 -62z"/>
<path d="M38195 2483 c-9 -252 -1 -688 15 -783 16 -102 41 -200 53 -207 11 -7
123 -32 146 -33 18 0 12 69 -34 440 -19 151 -41 360 -49 463 -17 208 -28 246
-90 306 l-34 33 -7 -219z"/>
<path d="M48145 1380 c0 -558 1 -787 2 -507 2 279 2 735 0 1015 -1 279 -2 50
-2 -508z"/>
<path d="M16861 2159 c-19 -68 -25 -289 -11 -449 7 -80 16 -266 20 -415 7
-256 8 -275 35 -360 37 -120 37 -125 -7 -154 -21 -13 -38 -32 -38 -42 0 -32
83 -142 113 -150 35 -9 59 -37 105 -124 34 -66 37 -75 37 -162 0 -50 -2 -93
-5 -96 -6 -6 -968 -32 -974 -26 -4 4 3 114 18 307 3 36 1 62 -4 62 -6 0 -10
-11 -10 -25 0 -30 -11 -32 -34 -6 -27 30 -101 44 -241 46 -71 2 -145 8 -164
14 -19 6 -36 10 -37 8 -1 -1 -4 -98 -6 -215 l-3 -212 988 0 987 0 0 215 0 214
-77 3 -77 3 -1 35 0 35 -120 7 c-198 12 -258 30 -313 93 -72 81 -82 190 -82
868 l0 548 -32 -3 c-20 -2 -37 3 -44 11 -9 11 -13 5 -23 -30z"/>
<path d="M32939 1935 c-37 -12 -106 -41 -155 -64 l-89 -42 33 -25 c17 -14 32
-34 32 -45 0 -66 71 -83 117 -28 15 17 57 55 94 84 68 55 116 116 104 135 -10
16 -65 10 -136 -15z"/>
<path d="M16610 1758 c-6 -24 -12 -47 -14 -53 -3 -9 -40 44 -50 70 -2 6 -7 6
-12 2 -5 -5 -9 -104 -9 -220 1 -239 14 -337 68 -497 52 -153 124 -243 215
-270 31 -8 32 -8 32 23 0 21 -9 40 -27 57 -41 39 -81 137 -93 231 -5 46 -10
205 -10 354 0 148 -3 287 -6 308 -6 35 -8 37 -45 37 -37 0 -39 -2 -49 -42z"/>
<path d="M38379 1337 c-99 -82 -98 -81 -43 -113 46 -27 124 -39 133 -21 6 13
-10 187 -18 187 -4 0 -36 -24 -72 -53z"/>
<path d="M13903 792 c-228 -90 -293 -120 -301 -138 -23 -50 -33 -146 -30 -299
l3 -159 105 -19 c58 -11 140 -20 183 -21 74 -1 80 0 103 27 61 71 68 212 21
457 -14 69 -21 128 -18 133 4 4 59 24 122 45 105 36 114 41 117 65 2 15 0 27
-5 26 -4 -1 -139 -53 -300 -117z"/>
<path d="M16316 818 c-57 -94 -107 -153 -150 -175 -26 -13 -54 -15 -181 -9
-82 3 -162 9 -177 12 -26 6 -28 4 -28 -24 l0 -29 128 -5 c83 -3 140 -10 164
-21 33 -14 37 -14 42 0 4 8 13 13 21 9 19 -7 124 90 164 153 28 43 75 160 68
167 -1 2 -25 -33 -51 -78z"/>
<path d="M49260 665 c0 -40 238 -59 745 -59 501 0 725 19 725 59 0 13 -97 15
-735 15 -638 0 -735 -2 -735 -15z"/>
<path d="M626 654 c-141 -26 -178 -38 -200 -68 l-21 -27 25 -20 c45 -35 116
-68 196 -89 43 -11 83 -20 90 -20 8 0 1 26 -21 75 -19 41 -33 75 -32 75 1 0
36 -6 77 -14 187 -36 807 -46 1243 -20 104 7 107 8 107 30 l0 24 -660 0 -659
0 -28 35 c-15 19 -30 35 -33 34 -3 0 -40 -7 -84 -15z"/>
<path d="M51248 624 c-4 -3 -134 -8 -290 -9 -156 -2 -310 -9 -343 -15 -33 -6
-254 -13 -498 -16 -437 -6 -694 3 -819 28 -47 10 -72 9 -155 -6 -58 -11 -170
-21 -275 -24 l-178 -5 0 -131 c0 -148 12 -187 67 -219 51 -29 204 -35 618 -26
209 5 756 9 1215 8 572 -1 843 2 862 9 51 21 63 55 61 172 -2 58 -9 134 -16
170 l-12 65 -116 3 c-63 1 -118 0 -121 -4z"/>
<path d="M203 541 c-29 -4 -58 -12 -64 -18 -10 -10 -9 -52 1 -188 l13 -175
1343 0 1344 0 0 194 0 195 -222 -5 c-123 -3 -322 -10 -443 -15 -741 -32 -1156
-31 -1378 2 -43 6 -80 9 -83 7 -2 -3 10 -35 27 -72 17 -37 29 -69 27 -72 -8
-7 -209 47 -263 71 -28 12 -67 36 -87 54 -33 28 -41 31 -99 30 -35 -1 -88 -5
-116 -8z"/>
</g>
</svg>
